<?xml version="1.0" standalone="no"?>
<!DOCTYPE svg PUBLIC "-//W3C//DTD SVG 1.1//EN" "http://www.w3.org/Graphics/SVG/1.1/DTD/svg11.dtd" >
<svg>
<metadata>
Created by FontForge 20090914 at Fri Feb 24 01:09:30 2012
 By root
Tup Wanders 2004 CC by
</metadata>
<defs>
<font id="FETTECKE" horiz-adv-x="1281" >
  <font-face 
    font-family="FETTECKE"
    font-weight="400"
    font-stretch="normal"
    units-per-em="1000"
    panose-1="0 0 4 0 0 0 0 0 0 0"
    ascent="800"
    descent="-200"
    x-height="594"
    cap-height="609"
    bbox="-14 -306 1710 800"
    underline-thickness="20"
    underline-position="-123"
    unicode-range="U+0020-U+007A"
  />
<missing-glyph horiz-adv-x="500" 
d="M63 0v800h375v-800h-375zM125 63h250v675h-250v-675z" />
    <glyph glyph-name=".notdef" horiz-adv-x="500" 
d="M63 0v800h375v-800h-375zM125 63h250v675h-250v-675z" />
    <glyph glyph-name="NULL" horiz-adv-x="0" 
 />
    <glyph glyph-name="nonmarkingreturn" horiz-adv-x="500" 
 />
    <glyph glyph-name="space" unicode=" " horiz-adv-x="500" 
 />
    <glyph glyph-name="zero" unicode="0" horiz-adv-x="1162" 
d="M1145 283q-14 97 -62 145q-29 27 -73 53l-80 44q-53 29 -137 41h2q-2 0 -8 1q-40 8 -48 8q-14 0 -21 -6q-47 -1 -101 -12q-49 -5 -147 -18q-117 -19 -176 -38q-117 -39 -213 -216q-18 -32 -18 -61q0 -83 154 -159q110 -55 197 -61q81 -12 242 -30q39 -2 95 5q90 11 93 12
q67 5 87 8q50 8 84 25q62 30 94 96q38 81 38 135q0 14 -2 28zM776 117q-19 -38 -40.5 -54.5t-50.5 -16.5q-24 0 -64 13q-77 24 -101 63q-47 76 -47 144q0 75 56 141q49 59 115 75q9 5 20 5q27 0 68 -32q91 -71 91 -181q0 -48 -19.5 -94.5t-27.5 -62.5z" />
    <glyph glyph-name="one" unicode="1" horiz-adv-x="893" 
d="M426 630q-42 -30 -129 -85q-33 -17 -113 -30q-37 -8 -109 -17q-2 -40 0 -78q30 9 92 20q7 0 44 6q28 5 43 3q54 -8 54 -89q0 -16 -2.5 -44t-2.5 -37q-1 -67 -2 -80q-5 -49 -27 -73q-26 -29 -105 -38q-22 -2 -58 2q-39 5 -56 4q-3 -21 -7 -64q-1 -5 -4 -21.5t-2 -23.5
q51 13 124 16l126 2q70 2 130 6l70 7q42 5 69 5q6 0 95 1q57 2 95 -4q7 -1 58 -13q35 -7 58 -6q-3 8 -3 20q0 11 4 30q6 25 6 28q4 25 4 28q4 14 12 25q-12 -7 -41 -7q-21 0 -43 1q-14 0 -41.5 -4t-41.5 -4q-45 0 -76 26q-15 12 -33 70q-17 50 -17 121q0 59 15 167l11 99
l6 31q4 18 3 31q-10 2 -29 -3q-23 -7 -29 -8q-26 1 -78 0q-43 -4 -74 -14q-1 -3 0 -6h4z" />
    <glyph glyph-name="two" unicode="2" horiz-adv-x="1202" 
d="M343 668q-17 3 -36 3q-72 0 -134 -39q-66 -42 -86 -107q-4 -16 -4 -29q0 -45 47 -68q39 -19 95 -19q12 0 24 1q79 7 79 52q0 9 -5 20q-27 62 -87 76q14 23 82 50q36 14 119 10q48 -2 60 -4q33 -5 54 -22q34 -27 38 -90q6 -74 -78 -112q-16 -6 -112 -39q-68 -22 -107 -50
q-114 -83 -166 -173q-27 -48 -38 -76q-4 -18 -16 -49q41 9 125 22q61 0 181 2q132 4 193 -4.5t183 -35.5l63 -16q38 -8 64 -9q15 0 42.5 5.5t41.5 5.5q59 1 94 11q45 13 86 12q0 22 5 79q4 51 4 79t13 68q19 56 20 65q-50 0 -149 -3q3 -12 3 -25q0 -48 -49 -102
q-35 -39 -41 -44q-23 -20 -53 -26q-25 -4 -55 -4q-34 0 -84 7q-42 5 -84 11q-1 0 -50 10q-42 9 -65 9q-29 0 -35 -13q47 52 149 111q51 30 89 44q50 19 151 98q85 67 96 77q49 49 49 102q0 20 -7 41q-9 28 -44 51q-7 4 -62 32q-81 41 -144 41q-129 0 -175 4q-113 9 -150 5
q-26 -3 -86 -19q-54 -14 -86 -15q-3 -12 -11 -34z" />
    <glyph glyph-name="three" unicode="3" horiz-adv-x="1021" 
d="M563 697q-27 33 -103 33q-39 0 -107 -11q-125 -21 -188 -62q-73 -48 -73 -100q0 -55 99 -83q60 -17 95 -17q63 0 83 45q5 10 5 21q0 31 -40 55q-34 21 -68 23q15 31 106 31q26 0 55 -2q1 0 51 -2q31 -1 50.5 -8t41.5 -42q32 -52 32 -94q0 -23 -11 -40q-21 -30 -81 -49
q-44 -13 -100 -13q-35 0 -73 5q-31 4 -44 0q2 -11 2 -27q0 -38 -14 -88q3 0 53 11q31 6 55 6q93 0 163 -20q107 -30 107 -94q0 -15 -8 -32q-24 -48 -76.5 -77t-108.5 -30q-76 -1 -182 38q6 -2 12 -2q19 0 37 14t24 33q4 11 4 20q0 35 -51 63q-32 18 -81 18q-104 0 -134 -64
q-9 -19 -9 -36q0 -27 20 -51q15 -17 44 -33q36 -20 47 -28q45 -37 131 -62q152 -42 262 -37q182 8 276 84q134 109 137 202q2 98 -85 155q-76 50 -179 47q90 -3 147 80q30 44 30 58q0 31 -35 71q-32 37 -62 51q-159 69 -260 69q-39 0 -66 2q-17 2 -43 -3q-31 -5 -46 -6z" />
    <glyph glyph-name="four" unicode="4" horiz-adv-x="1311" 
d="M1076 363q-34 -5 -25 -5q-7 0 -7 27q-6 39 -10 119q5 102 0 125q-6 25 -15 77q-5 53 -27 49q-11 -2 -31 -26l-239 -91q-113 -42 -231 -113q-46 -26 -134 -83q-20 -14 -56 -33q-43 -22 -57 -31q-22 -13 -59.5 -46t-58.5 -47l-67 -52q7 -4 18 -5q7 -1 20 0q15 1 19 1
q88 -3 119 -3q83 1 249 5q65 2 194 9q54 5 79 1q0 -3 9 -42q7 -35 7 -55q0 -29 -14 -37q-7 -4 -24 -4h-25q-22 -1 -65 -5q-21 -2 -41 -5q-24 -2 -41 3q0 -8 4 -36t4 -43q0 -25 -9 -37q1 0 32 9q14 5 56 10q36 5 153 -1q41 -2 113 5q80 8 114 8q26 0 64 6q51 7 62 8
q13 1 37 -5t37 -4q-2 10 2 28q5 23 5 30q2 49 20 70q-8 3 -22.5 -1.5l-26.5 -8.5q-24 -6 -52 -6q-48 0 -64.5 13t-25.5 53q-7 33 -6 61q133 11 234 -10q0 23 5 72q3 17 14 38l20 35q-21 2 -45 2q-41 0 -212 -29zM706 347q-1 0 -53 5h-82q-23 0 -69 3.5t-67 3.5
q-15 0 -44 -3.5t-44 -3.5q10 23 87 49l70 22q42 13 68.5 27.5l54 29t56.5 20.5q33 6 48 19q-1 12 -1 21l5 -15q1 2 3 5q-1 -6 -7 -11q3 -33 8 -99q-2 -24 2 -70q7 0 -35 -3z" />
    <glyph glyph-name="five" unicode="5" horiz-adv-x="1077" 
d="M95 417q-1 23 0 117q0 71 -6 116q44 -16 108 -17q-83 1 111 1q69 0 190 11q131 11 189 12q51 1 103 1q59 1 102 8q33 5 111 2q57 -2 69 2q-34 -14 -38 -128q-2 -48 11 -89q-11 1 -42 5t-47 4q-28 0 -47 -9q16 15 16 36q0 33 -30 51q-39 24 -109 34q-58 6 -115 13
q-37 4 -78 4q-48 0 -195 -15q15 -16 29 -85q10 -47 2 -85q14 7 34 7q18 -1 35 -3h130q248 0 370 -74q62 -38 62 -108q0 -57 -40 -107q-68 -85 -217 -119q-96 -23 -253 -26q-236 -6 -452 94q-46 21 -46 64q0 58 61 95q39 23 98 23q87 0 87 -63q0 -52 -36 -104q93 -48 155 -63
q70 -18 135 -14q37 0 105 10q10 2 79 39q34 17 43 50q8 28 4 74q-2 28 -5 44q-5 27 -13 40q-23 37 -45 54q-17 13 -47 20l-52.5 8.5t-57.5 5.5q-21 1 -56 0q-43 -1 -58 -1q-152 0 -210 -12q-11 -2 -90 -18q-17 -8 -51 -21q5 48 4 76q0 5 -5 28.5t-5 35.5q0 16 8 21z" />
    <glyph glyph-name="six" unicode="6" horiz-adv-x="1317" 
d="M1250 326q-110 87 -311 113q-136 17 -179 16l-160 -9q-54 -2 -101 -11q-20 -9 -60 -20q-1 14 7 35q8 17 15 34q15 38 28 58q15 25 47 65q20 19 76 29q41 8 87 8q97 0 210 -34q34 -9 68 -19q44 -14 61 -32q8 -9 9 -26q-1 -14 -1 -28q12 0 112 -18v39q0 21 6 37
q14 36 45 103q-33 -9 -109 -25q0 -7 -4 -13q-35 7 -102 28t-101 28q-133 26 -231 26q-93 0 -250 -40q-100 -25 -174 -72q-94 -60 -126 -110q-21 -32 -26 -78q-1 -14 -1 -83q0 -119 47 -170q64 -69 166 -112q31 -14 94 -39q42 -9 125 -30q104 -30 168 -30q42 5 127 9
q140 1 225 20q128 28 194.5 101.5t66.5 150.5q0 60 -48 99zM867 49q-23 -10 -45 -21q-27 -11 -47 -12q-67 -4 -138 34q-94 50 -144 111q-46 56 -60 158q1 1 8 7q9 15 34 22q4 1 42 6q61 9 141 9q111 0 181 -29q39 -16 70.5 -59.5t31.5 -83.5q-1 -44 -19 -83q-20 -44 -55 -59
z" />
    <glyph glyph-name="seven" unicode="7" horiz-adv-x="1009" 
d="M74 612q8 -16 14 -50t13.5 -49.5t15.5 -47.5q2 -43 -8 -63q24 6 84 9l36 4q23 3 34 -1q-2 3 -24 33q-19 23 -19 38q0 5 2 9q6 16 59 37q18 8 66 13q88 8 167 12q63 3 71 3q48 -1 68 -16q-18 -27 -47 -85l-18 -46q-12 -29 -27 -42q-24 -20 -84 -20q-15 0 -40.5 1.5
t-36 1.5t-99.5 4q-4 -28 -24 -67q31 -11 93 -2q39 6 92 6q5 0 21 3.5t24 3.5q19 0 19 -16q0 -6 -16 -47q-38 -96 -160 -178q-34 -23 -82 -34q-19 -4 -88 -14q2 -31 -9 -76q19 0 98 18q62 15 148 22l142 10q87 11 134 44q25 18 58 61q12 16 20 41q5 22 11 44q9 27 20 71
q8 33 38 38q14 3 57 3q5 0 28 -4q18 -3 28 0q16 4 23 29q5 21 9 41t16 52q-30 4 -86 -15q-60 -21 -86 -20q17 6 58 69q50 76 86 161q18 42 17 47q-53 3 -128 -1l-128 -8q-10 0 -188 -2q-114 -1 -187 -13q-41 -6 -113 -12q-81 -6 -113 -11q-28 -3 -38 0q-5 2 -16 8l-11 6z
" />
    <glyph glyph-name="eight" unicode="8" horiz-adv-x="1208" 
d="M906 356l-40 7q33 17 58 44q23 24 28 32q14 18 17 38q1 11 1 21q0 60 -41 83q-75 40 -211 53q-34 1 -101 5q-31 4 -47 -3q-62 -7 -186 -18q-75 -6 -86 -8q-45 -6 -80 -27q-74 -42 -76 -43q-45 -32 -45 -68q0 -16 9 -33q19 -37 97 -82q31 -19 75 -29q22 -7 63 -16
q-111 -13 -159 -29q-94 -30 -124 -94q-10 -20 -10 -45q0 -30 13 -54q6 -6 17 -20q4 -16 18 -42q13 -17 67.5 -37t187.5 -25q142 -7 294 -8q240 -2 377 51q57 22 78 32q45 22 68.5 46.5t23.5 54.5q0 44 -62 113.5t-224 100.5zM492 523l26 29q7 8 23 25l-23 -25q-6 -7 -15 -22
q16 7 76 15q39 6 69 -25.5t30 -71.5q0 -38 -26.5 -66.5t-65.5 -28.5q-68 -2 -91 51q-11 28 -11 56q0 36 19 70q-7 -3 -11 -7zM792 131q-3 -51 -46 -77q-37 -21 -93 -21q-33 0 -63 8q-80 20 -94 26q-50 23 -63 70q-4 16 -4 30q0 51 49 88q42 31 101 41v2q7 2 29 3
q73 2 130.5 -48t53.5 -122z" />
    <glyph glyph-name="nine" unicode="9" horiz-adv-x="1133" 
d="M973 509q-64 37 -157 55q-51 9 -167 19q-57 5 -112 5q-114 0 -207.5 -20t-173.5 -64q-10 -3 -29 -15q-52 -33 -52 -99q0 -56 67 -91q32 -17 116 -38q63 -17 150 -22l152 -6q47 -2 140 17q8 1 73 26q4 -70 -12 -110q-21 -51 -54.5 -71.5t-87.5 -23.5q-5 -1 -92 -1
q-108 0 -215 33q-55 17 -74 26q-50 21 -56 46q-15 -12 -49.5 -29t-48.5 -30q16 -24 58 -41q118 -46 284 -67q70 -9 169 -3q36 1 72 3q42 1 71 8l133 34q74 24 120 63q114 98 125 215q5 47 -49 105q-41 45 -94 76zM711 314q-39 -17 -83 -17q-30 0 -66 8.5l-73 17.5
q-37 15 -45 54q-2 10 -2 20q0 49 39 90.5t87 42.5l-9 -4q18 0 73 -16q64 -18 71 -21q35 -17 46 -53q8 -27 8 -48q0 -53 -46 -74z" />
    <glyph glyph-name="A" unicode="A" horiz-adv-x="1249" 
d="M1243 72q-8 -4 -29 -2l-31 5q-41 1 -81 24q-18 10 -74 75q-20 22 -85 141l-57 101q-31 58 -40 106q-2 10 -14 44q-9 27 -8 45l-146 -25q-88 -14 -149 -12q-137 6 -189 -9q-13 -3 -42 -4.5t-42 -4.5l1 14q-1 -6 -2 -14q-2 -1 -6 -2q2 -7 -3 -29q3 1 5 -1q-3 -34 -7 -50
q48 19 97 17q20 -1 60 -4q12 2 29 0q4 -4 4 -13q0 -20 -12 -51.5t-72 -126.5q-50 -77 -78 -110q-47 -56 -104 -84q-63 -31 -89 -31q-7 0 -20.5 4t-22.5 4q-5 -29 -27 -82q14 -3 39 2q37 8 39 8q47 5 99 7q104 4 170 -3l121 -15q22 -2 63 -8q-2 66 8 91q-10 -1 -50 -9
q-34 -6 -55 -6q-36 0 -60 18q-14 10 -14 22q0 8 5 15q10 8 27 25q4 8 15 21q8 5 28 6h31q35 3 106.5 12t127.5 6q3 -10 16 -31q11 -17 11 -27q0 -13 -12 -26q-27 -28 -70 -28q-11 0 -20 4q-7 -13 -13 -45t-15 -47q4 -1 10 -1q10 0 29 5q23 5 29 6q78 9 113 9
q40 -1 118.5 -14.5t118.5 -13.5q11 0 60 3q37 2 60 0q64 -7 81 -4q-2 17 2 53q6 13 16 40zM639 280q-10 -1 -68 -2q-26 0 -63 -9q-18 -5 -35 -11q-22 -6 -36 -4q17 38 50 93l55 93l-7 -7q17 15 20 42q22 -21 61 -82q11 -25 36 -77q11 -21 13 -24q9 -15 19 -18q-25 9 -45 6z
" />
    <glyph glyph-name="B" unicode="B" horiz-adv-x="1274" 
d="M28 549q3 5 12 7q2 12 4 20zM1251 218q-14 32 -89 85q-37 25 -87 38q-30 8 -72 9q31 1 49 35q16 29 16 66q0 15 -3 26q-17 71 -166 92l-137 20q-80 10 -140 7q-78 0 -230 -11q-123 -17 -189 -18q-37 -5 -110 -11q-18 2 -53 0q0 -27 -9 -78q61 13 121 2q54 -11 61 -15
q24 -12 26 -53q3 -44 -8 -114q-2 -35 -5 -69q-3 -38 -18 -65q-13 -23 -39 -37q-8 -5 -51 -21q-2 -1 -24 -11q-13 -6 -22 -6t-19 5q2 -25 3 -49q2 -32 -3 -47q88 3 263 4q111 -1 167 8q41 6 118 6q83 1 117 4q23 3 49 3q36 0 110 -7t111 -7q72 0 125.5 20.5t94.5 57.5
q51 46 51 94q0 19 -8 37zM537 489q-1 7 -4 22q102 -2 115 -4q75 -12 75 -61q0 -8 -2 -18q-15 -60 -88 -67q-81 -7 -116 -2l10 68q6 40 17 68zM787 123q-16 -9 -41 -11q-17 -2 -44 -1q-42 1 -44 1q-11 0 -54 2q-36 2 -57 1q-30 -2 -52 -10q5 24 8 68q3 48 7 69q0 4 1.5 14
t1.5 15q48 4 78 5q18 0 47 -3q37 -3 47 -4q37 -2 45 -3q27 -3 44 -13q47 -25 47 -77q0 -36 -34 -53z" />
    <glyph glyph-name="C" unicode="C" horiz-adv-x="953" 
d="M789 590q-100 40 -228 40q-74 0 -162 -14q-93 -14 -168 -55q-28 -15 -56 -45l-49 -53q-67 -73 -67 -173q0 -47 15 -96q21 -69 86 -112q41 -27 132 -58q84 -30 271 -23q149 6 244 36q24 8 74 21q21 2 53 13q12 11 12 36q0 11 -2.5 33.5t-2.5 30.5q-19 -3 -55 -17
q-40 -15 -57 -18q-42 -11 -127 -30q-26 -4 -69 -4q-59 1 -68 0q-51 -2 -100 30q-102 65 -102 206q0 25 3 52q13 111 116 163q32 17 90 13q55 -3 58 -4q34 -4 56 -17q90 -54 106 -105q12 11 37 11q12 0 39 -3q24 -3 35 -3q-19 32 -19 74q0 58 33 111q-75 -15 -119 1
q-2 -33 -2 -35q-3 -22 -14 -27q-1 18 -2 17z" />
    <glyph glyph-name="D" unicode="D" horiz-adv-x="1009" 
d="M64 589h7v0h-7zM991 374q-30 122 -158 174q-101 41 -237 52q-65 5 -245 5q-46 0 -141 -9q-91 -8 -139 -7q-15 -67 -15 -82q0 -14 3 -24q9 8 26 10q11 2 31 1q23 -2 29 -1q36 1 60 -8q38 -16 38 -68q0 -9 -1 -23q-1 -17 -1 -23q-1 -21 8 -85q8 -67 8 -101
q0 -126 -101 -123q-108 4 -105 5q11 -50 5 -77q86 20 192 20q60 0 180.5 -10.5t180.5 -10.5q94 0 172 20q50 13 101 25q62 21 83 58q13 24 19 65q4 34 9 67q14 88 -2 150zM695 192q-12 -37 -30 -54t-55 -26q-24 -6 -56 -6q-51 0 -65 19q-9 12 -12 36q-2 17 0 45q1 39 1 41
q0 150 25 225q-14 13 -4 40q79 -8 119 -33q36 -23 48 -32q28 -20 40 -40q18 -28 18 -72q0 -54 -29 -143z" />
    <glyph glyph-name="E" unicode="E" horiz-adv-x="1172" 
d="M66 613q-1 -6 -3 -46q-2 -32 -10 -44q11 5 33 12q6 0 75 -9q44 -6 52 -10q20 -9 26 -42q3 -21 0 -130q-1 -52 -14 -119q-3 -30 -18 -89q-18 -45 -65 -45q-5 0 -24.5 1.5t-30.5 1.5q-34 0 -40.5 -11t-8.5 -40q-3 -32 -5 -39q-1 0 58 6q32 2 96 8q43 4 146 -1q44 -2 342 -2
q10 0 42 -1q27 -1 42 -1q24 1 41 5q59 13 112 10q45 -5 134 -13q13 -1 26 1q-3 35 16 82l36 78q8 19 37 127q-38 11 -73 11q-13 0 -17.5 -4t-8.5 -20q-5 -22 -5 -24q-12 -30 -23 -46q-45 -63 -146 -80q-56 -9 -205 -16q-33 0 -99 -6q-58 -9 -70 -2q-2 0 -6 -2q-4 69 -16 154
q94 5 82 5q37 0 52 -9q20 -12 20 -29t-32 -52q46 -13 115 -20q-5 17 5 53q8 30 28 89t43 118q-18 4 -54 13q-13 6 -39 13q-8 -29 -17 -58q-10 -34 -34 -46q-13 -7 -33 -9q-14 -1 -37 0l-35 1q-34 1 -42 2q-23 5 -26 22q-2 10 -2 21q0 14 4.5 44.5t4.5 45.5q0 22 -7 38
q3 14 64 16q37 -1 75 -1q15 2 60 10q38 8 60 8q12 0 74 -11q164 -27 164 -80q0 -21 -27 -46q25 2 74 -3l29 -13q-3 7 -3 14q0 10 19 50q8 25 29 73q27 54 57 75h-12q-15 10 -44 14q-21 2 -54 1q-51 -2 -48 -2q-16 0 -89 2q-54 2 -88 0q-14 -1 -196 -22q-29 -3 -74 -2
q-78 2 -75 2q-34 0 -118 -5q-75 -4 -118 -2q-47 2 -94 3q-55 3 -94 13q-2 1 -13 2q0 1 9 -2z" />
    <glyph glyph-name="F" unicode="F" horiz-adv-x="1165" 
d="M81 592q-13 -56 -11 -89q56 9 82 9q29 0 52 -8q5 -16 11 -50q1 -11 -2 -31q-4 -23 -5 -30q-3 -62 -2 -155q0 -7 5 -39q3 -25 0 -39q-6 -27 -43 -48q-21 -11 -76 -26q-10 -3 -22 -1q-15 1 -22 1q-3 -42 -3 -44q-2 -24 -9 -41q14 1 47 5q30 4 49.5 4t54.5 3q39 3 55 3
q44 2 122 -2q86 -4 123 -4q22 0 74 1q48 1 74 1q10 0 50 -2q30 -1 49 0q-16 9 -16 48q0 14 3 44q3 27 2 35q-99 -16 -117 -16q-32 0 -52 10q-24 10 -33 52l-10 64q19 21 67 26q12 1 76 1q26 0 33 -4q11 -6 8 -29q-2 -16 -14 -34.5t-25 -24.5q43 3 121 -15q0 13 27 69l23 65
q11 22 30 67l8.5 27.5t14.5 20.5q-19 17 -55 30q-47 16 -56 21q-5 -15 -16 -45q-5 -20 -18 -52q-10 -13 -41 -14q27 1 -46 1q2 0 -55 -3q-34 -2 -53 3q-39 9 -45 20q-3 6 -3 20q0 4 10 75q3 20 9.5 24t29.5 4q20 0 51 4q43 4 52 5q68 5 163 0q81 -6 163 -11q22 -1 30 -4
q15 -5 17 -19q4 -19 -9 -59q-3 -9 -13 -20.5t-13 -17.5q19 -6 58 -14q-2 0 19 0q11 0 17 -6q-3 30 16 74q30 70 31 70q7 35 30 99q-54 3 -144 -13q-106 -19 -143 -21q-93 -5 -129 -2q-48 7 -146 14q-37 0 -112.5 10.5t-114.5 10.5q-66 0 -209 -15q-20 -2 -88 2q7 -18 7 -31z
" />
    <glyph glyph-name="G" unicode="G" 
d="M1047 579q-150 74 -391 74q-59 0 -159 -5q-91 -4 -131 -9q-72 -10 -125 -34q-24 -10 -53 -42q-47 -51 -47 -52q-64 -59 -84 -103t-20 -107q0 -57 16 -106q10 -30 39 -49.5l57 -37.5q29 -24 41 -32q22 -16 44 -26q31 -17 96 -47q72 -25 155 -23q87 3 168 26q5 1 128 44
q34 10 100 32q29 10 43 10t27 -6q47 -26 43 -101h38q23 0 38 -7q-1 4 -11 24q-6 13 -5 26q4 16 9 49q1 25 1 49q1 28 12 47q14 23 35 33q6 4 47 18q20 7 41 7q7 0 59 -8q-1 22 6.5 64t6.5 63q-17 -7 -48 -7h-50q-49 -3 -148 -8q-170 -8 -233 -5q-34 -1 -101 0l-40 4
q-26 3 -40.5 -1.5t-20.5 -31.5q-8 -35 -13 -42q16 -2 54.5 3t54.5 5q31 0 48 -12q25 -18 25 -60q0 -34 -17 -53q-49 -58 -145 -58q-56 0 -103 22q-50 24 -71 65q-37 69 -37 161q0 79 27 152q20 52 82 80q52 24 115 24q51 0 117 -16l114 -32q90 -24 99 -28q58 -23 67 -66
q1 -5 -2 -17q37 -5 108 -13q-18 48 -18 112q0 19 2 35q3 24 17 52q16 32 34 42q-43 3 -127 4q-8 -45 -7 -73z" />
    <glyph glyph-name="H" unicode="H" horiz-adv-x="1412" 
d="M44 637q-8 -53 -6 -82q12 -1 36 1.5t34 2.5q28 0 46 -13q48 -36 51 -109q1 -19 8 -83q5 -52 5 -84q0 -19 -2 -36q-14 -157 -92 -157q-9 0 -29 3t-30 3q-22 0 -29.5 -11t-7.5 -26q0 -7 2 -21.5t2 -21.5q0 -14 -5 -23q71 29 179 30h184q8 0 44 4q27 4 45 3q19 -4 58 -11
q2 0 76 4q0 4 -2 11l94 -9q-6 40 9 101q-12 6 -34 6q-12 0 -33.5 -2t-28.5 -2q-47 0 -74 11q-36 14 -45 58l-6 76q13 0 62 -5q39 -5 63 -3q54 0 162 4q32 4 97 9q19 -2 52 0q4 -12 3 -34l-1 -35q2 -39 -20 -52q-38 -24 -105 -24q-27 0 -45 5q11 -10 11 -30q0 -18 -9 -48
l-13 -41q17 -3 47 8q36 12 47 13q20 3 57 -1q41 -3 58 -2q38 1 109 1q18 0 23 4t23 3q21 -1 72 -7q46 -5 71 -5t46 4q26 4 57 -3q10 -3 23 0q15 4 23 3q-11 13 -11 37q0 16 6.5 47t6.5 40q-34 2 -68 3q-44 6 -61 26q-26 31 -32 85q-1 7 -4 92q-2 68 -2 79q2 45 18 77
q10 19 16 22.5t26 3.5q-6 0 67 3q1 9 -3 24q-5 21 -5 24l-4 28q-4 6 -25 6q-97 6 -290 16q-54 6 -193 16q-51 3 -68 0q-10 -5 -34 -12q4 -23 4 -60q0 -10 -6.5 -25.5t-6.5 -23.5q11 5 37 13q21 4 50 -3q41 -10 57 -42q23 -44 21 -152q-21 0 -61 4.5t-59 4.5q-25 0 -76.5 6
t-77.5 5q-66 -1 -149 -20q-1 11 4 28q6 24 6 28q2 19 8.5 59.5t38.5 57.5q29 15 65 16l70 2q0 28 1 57q1 34 9 55q-122 -3 -149 -3q-39 -3 -116 -1q-29 6 -86 15q-37 5 -94 6q-86 2 -95 3q-79 3 -99 -5q0 -14 -2 -40z" />
    <glyph glyph-name="I" unicode="I" horiz-adv-x="787" 
d="M56 588q8 -35 7 -87q13 11 52 11q50 0 73 -12q14 -8 25 -58q7 -32 4 -107q0 -33 -2 -99l-2 -45q-2 -28 -10 -42q-14 -27 -62 -36q-21 -5 -76 -7q-1 -21 -5 -64q-7 -48 -6 -54q34 8 80 6q50 2 148 0q83 -3 249 -11q110 -7 251 7q-11 11 -11 45q0 14 2 43q2 26 2 35
q-9 1 -19 1q-11 0 -34.5 -2t-35.5 -2q-32 0 -54 12q-36 20 -43 77q-4 47 -7 93q-14 69 -14 103q0 49 21 72q18 18 50 18q12 0 36.5 -3t36.5 -3q10 0 18 2q-6 19 -11 37q-8 27 -8 43q0 26 16 40q-207 16 -416 8q-55 -4 -165 -10l-51 2q-38 0 -41 -11z" />
    <glyph glyph-name="J" unicode="J" horiz-adv-x="1062" 
d="M412 614q-7 -19 -8.5 -40.5t-2.5 -42.5l-4 -40q27 15 84 15q37 0 68 -5.5t42 -30.5q3 -7 11 -53q11 -59 11 -111q0 -129 -68 -184q-38 -30 -141 -46q-92 -15 -159 2q-62 16 -86 43q-15 14 -40 43q11 -3 21 -3q34 0 61.5 30t27.5 65q0 23 -14 40q-34 43 -89 43
q-33 0 -68 -16q-24 -12 -36 -20q-21 -14 -26 -30q-9 -29 2 -91q9 -53 100 -125q18 -14 49 -24l52 -16l64 -23q38 -13 67 -17q56 -6 145 -6q48 0 126 18q130 28 215 64q65 26 96 118q28 80 28 176q0 49 -8 99q-3 25 -3 35q0 32 23 39q8 3 20 3q15 0 48.5 -7t47.5 -7
q-11 11 -11 35q0 9 2 28.5t2 28.5q0 23 -11 30.5t-32 7.5q-19 0 -56 -7q-40 -8 -48 -9q-44 -6 -134 -13q-90 -3 -148 -1q-30 2 -170 -1q-51 -1 -63 -14q1 -5 6 -9z" />
    <glyph glyph-name="K" unicode="K" horiz-adv-x="1302" 
d="M46 632q0 -110 1 -116q11 0 34 2t34 2q42 0 68 -24q32 -28 32 -100q0 -23 -3 -57q-2 -20 0 -55q3 -44 3 -58q0 -44 -15 -71q-34 -62 -140 -70h-29q-1 -11 1 -29q2 -21 2 -28q0 -19 -8 -34q20 -2 54 3q53 8 54 8q189 20 346 13q53 0 155 -7q73 -11 87 -10q6 14 6 34
q0 9 -1.5 28.5t-1.5 29.5q0 13 2 23q-78 -11 -132 5q-39 12 -51 17q-29 13 -39 33q-19 38 -19 62q0 32 32 37q30 4 74 -3q37 -6 93 -52q24 -20 103 -108l67 -81q40 -41 89 -46q16 -2 33 -2q59 0 176.5 30.5t177.5 29.5q-20 48 -20 79q0 8 1 15q-20 3 -59.5 -6t-56.5 -7
q-24 3 -47 21q-2 2 -39 35q-40 32 -116 101q-51 52 -111 89q44 46 161 97q67 29 116 29q13 0 44 -7q28 -6 43 -4q-2 28 4 87q-92 5 -181 7q-30 0 -94.5 6.5t-98.5 6.5q-16 0 -93 2q-57 2 -92 0q14 -27 -4 -64q31 10 75 10q38 0 63 -9q31 -11 34 -42q1 -18 -12 -28
q-2 -1 -31 -14q-17 -7 -49 -14q-36 -8 -50 -13q-32 -16 -100 -45l-52 -21q-35 -13 -50 -13t-40 -6q2 11 3 82q1 63 23 87.5t85 26.5q54 2 51 3q8 -4 28 -9q-3 10 -3 22q0 14 5.5 42.5t4.5 42.5q-20 -11 -54 -12q19 1 -58 1q-70 -2 -208 0q-73 6 -217 16q-89 5 -101 -27z" />
    <glyph glyph-name="L" unicode="L" horiz-adv-x="1041" 
d="M44 589q0 -6 -2 -44q-2 -27 0 -43q16 8 44 8q45 0 79 -15q31 -13 31 -73q0 -10 -1 -31t-1 -30q5 -118 -13 -202q-8 -42 -32 -65q-11 -11 -31.5 -12l-39.5 -2q-1 0 -17 -5q-11 -3 -16 -1q-7 -95 -7 -82q23 12 61 17l64 4q53 2 157 7q35 2 72 2q120 0 234 -19
q97 -17 142 -17q26 0 77.5 -6.5t76.5 -6.5q36 0 63 9q-2 44 22 152q10 35 27 105q-63 3 -67 3q-41 4 -64 13q3 -11 3 -25q0 -56 -38 -78q-13 -8 -39 -13q-34 -7 -39.5 -9t-86.5 -17q-45 -9 -103 -9q-34 0 -89 3q-68 4 -88 5q0 -5 -7 45q-3 15 6 85q3 24 0 75q-2 50 1 75
q10 63 63 87q19 9 57 11q47 2 58 5q-15 48 -3 89q-40 5 -90 5q-35 0 -103.5 -3.5t-103.5 -3.5q3 0 -179 5q-55 1 -84 -7q0 -3 4 -9z" />
    <glyph glyph-name="M" unicode="M" horiz-adv-x="1588" 
d="M54 567q2 -32 11 -95q29 12 87 13q65 1 89 8q33 -26 33 -63q0 -20 -13 -65l-28 -102q-18 -58 -38 -100q-42 -87 -115 -102q-15 -1 -30 -1q-20 -1 -26 -10q1 -13 2 -33q-3 -15 -8 -45q53 20 61 22q34 11 66 11q24 0 69 -1q49 -1 69 -1q3 0 67.5 -4t98.5 -4q50 0 51 7
q7 1 21 1q-7 12 -7 44q0 29 5 45q-9 0 -31.5 -3.5t-35.5 -3.5q-17 2 -82 21q-17 5 -19.5 7.5t-5.5 16.5q-1 2 -2 38q-3 44 13 99q5 37 25 107l105 -85q24 -22 59 -71q38 -52 58 -73q32 -31 66 -80q27 -38 26 -58q27 7 69 6q62 -2 71 -1q13 56 94 173q9 14 19 39q13 35 15 41
q11 19 33 60q12 23 39 64q6 -7 7 -21q1 -21 1 -23q3 -11 21 -51q9 -20 29 -99q2 -6 13 -33q8 -21 8 -34t-7 -25q-10 -14 -34 -14q-7 0 -23 1.5t-24 1.5q-9 0 -16 -2q12 -53 12 -72q0 -15 -3 -30q40 21 146 30q88 8 186 3q47 4 143 4q32 -6 97 -16q-16 6 -16 36
q0 16 5.5 46.5t5.5 36.5q-12 1 -34.5 -3.5t-34.5 -2.5q-40 7 -78 21q-33 13 -47 58q-8 40 -17 79q-19 72 -19 118q0 34 9 62q12 37 55 37q-4 0 76 -12q-12 9 -12 27q0 8 2.5 24t2.5 23q0 9 -2 15q-4 11 -5.5 11.5t-16.5 1.5q-17 1 -52 -5t-51 -6q-36 0 -111 16.5t-115 15.5
q-30 -2 -83 6q-24 4 -31 3q-13 -3 -22 -19q-12 -30 -43 -89l-36 -67q-22 -34 -58 -106q-13 -31 -27 -61q-16 -38 -14 -64q-17 7 -29 37l-16 46q-17 38 -47 114q-16 43 -60 114q-8 25 -34 68q-10 10 -27 10q3 0 -43 -7q-27 -4 -71 -4q-70 -2 -72 -2q-195 -9 -298 -9
q-61 0 -69 -2q5 -22 0 -45z" />
    <glyph glyph-name="N" unicode="N" horiz-adv-x="1380" 
d="M32 565q-4 -47 0 -103q34 13 72 13q71 0 96 -45q22 -39 26 -100q1 -24 -1 -104q0 -9 2 -30t2 -31q0 -38 -25 -48q-20 -8 -48 -8q-19 0 -63 6q-40 5 -61 3q4 -20 10 -61q-1 -21 4 -61q11 -2 31 2q24 4 31 4q33 2 98 5q17 0 84 5q51 3 83 0q44 -5 132 -14q4 0 39 -6
q24 -5 39 -3q-21 42 -21 80q0 24 8 47q-18 2 -47 -3q-32 -6 -45 -6q-44 0 -80 31q-15 13 -22 30.5t-8 53.5q-3 49 -4 58q-8 58 9 74q5 4 11 4q11 0 30 -18l26 -26l123 -82q43 -30 134 -86q40 -18 115 -63l48 -36q28 -19 53 -30t100 -17q62 -6 115 2q64 10 69 10q11 0 18 -2
q-11 44 -14 120q-4 90 -9 121q-13 57 -28 171q-3 60 73 60q13 0 28 -2l64.5 -6t59.5 -12q-19 37 -19 68q0 30 17 57q-35 -12 -102 -11q-29 4 -86 11q-22 1 -109 -2q-43 -2 -123 10q-84 12 -122 12q-22 0 -42 -2q2 -7 2 -15q0 -15 -9 -41q-12 -32 -13 -40q61 -3 77 -5
q47 -5 75 -18q6 -3 58 -36q29 -18 40 -33q15 -20 18 -63q1 -6 1 -69q0 -19 3.5 -57.5t2.5 -59.5q-26 12 -64 46q-44 39 -63 50q-87 54 -119 101q-20 29 -79 106q-14 17 -51 53q-34 33 -49 56q-1 1 -6 12q-2 3 -10.5 6.5t-28.5 1.5q-27 -2 -30 -2q-79 4 -143 -7
q-73 -12 -296 -29q-30 0 -60 -1q-41 -5 -35 -27l6 -3z" />
    <glyph glyph-name="O" unicode="O" horiz-adv-x="1285" 
d="M669 620q-5 0 14 0q12 2 22 2zM1258 378q-20 33 -46 54q-85 70 -136 98q-157 89 -393 90q-24 -4 -73 -11l-94 -5q-120 -5 -181 -31q-119 -50 -145 -64q-76 -42 -119 -102q-47 -64 -47 -109q0 -36 59 -115q23 -31 79 -69l47 -34q27 -20 50 -29l116 -40q36 -14 110 -34
q68 -11 151 -7q40 2 110 -3q79 -5 109 -5q93 0 226 49q98 37 166 124q35 45 35 129q0 17 -1.5 47t-22.5 67zM905 179q-21 -81 -98 -112q-31 -12 -68 -14q-25 -3 -74 -6q-99 -1 -170 48q-89 61 -103 117q-11 43 -11 84q0 40 10 83q20 86 117 118q47 15 178 25q-7 2 -13 4
l14 -4h-1q24 -6 70 -23q40 -20 61 -33q38 -24 49 -43q18 -31 38 -110q9 -35 9 -68q0 -32 -8 -66z" />
    <glyph glyph-name="P" unicode="P" horiz-adv-x="1147" 
d="M50 586v0q0 10 1 17zM49 573l1 13q-13 -3 -1 -13zM958 618q-55 8 -142 8q-120 0 -142 1q-36 2 -106 -8.5t-105 -9.5q-97 4 -127 0q-27 -7 -84 -15q-111 -7 -148 -7q-52 0 -54 -1q1 -26 1 -81q17 14 70 14q38 0 54.5 -10t23.5 -57q24 -171 24 -256q0 -50 -2 -63
q-7 -35 -36 -45q-40 -14 -107 -11q-20 0 -23 -6q-2 -4 0 -26l4 -29q2 -15 -6 -27q18 6 43 8l44 2q70 6 118 4q30 -2 79 0q59 3 78 3q28 0 52 -2q62 -7 160 -2h69q3 0 24 4q14 2 23 -1q0 26 1 53q0 32 8 51q-53 -13 -98 -13q-55 0 -91 20q-23 13 -37.5 43t-14.5 62q0 11 2 21
q33 1 85 -1q69 -3 85 -3q144 -1 265 34q110 32 165 95q20 24 20 68q0 25 -3 41q-10 55 -64 96q-48 37 -108 46zM736 358q-6 -16 -17 -25q-26 -21 -90 -23q-1 -1 -37 -4q-31 -2 -51 -2q-52 0 -60 16q-3 6 0 67v124l2 -23q0 30 3 36q6 10 31 11q4 1 52 -4q29 0 86 -5
q42 -7 77 -53q17 -23 17 -47q0 -12 -5 -36t-8 -32z" />
    <glyph glyph-name="Q" unicode="Q" horiz-adv-x="1211" 
d="M1302 33q-2 0 -60 -2q-38 -1 -58 7q1 -22 -3 -65q-5 -20 -40 -43q-17 -11 -35 -11q-23 0 -55 20l-55 32.5t-62 64.5l17 3q129 25 172 95q15 23 41 88q14 16 31 53q2 15 -7 41q-7 20 -15 40q-18 58 -69 100t-129 74q-25 9 -141 47q-7 3 -113 21q-55 9 -51 9q-16 0 -22 -5
q-59 0 -140 -14l-140 -26q-52 -9 -121 -36l-70 -26q-42 -17 -66 -36q-34 -25 -55 -83q-19 -52 -19 -101q0 -44 24 -103l20 -56q15 -35 35 -47q16 -10 93 -26q195 -40 287 -40q1 0 231 6q5 -26 24 -74q39 -59 109 -92q67 -32 140 -32h115q64 4 109 29q51 28 68 79
q14 39 10 109zM353 275q0 34 19 90q24 70 82 108q30 20 77 32q42 8 84 17l-5 -3q30 6 81 -15q76 -31 126 -69q36 -28 46 -74q7 -30 5 -88q-1 -33 -3 -44q-4 -26 -16 -40q-39 44 -150 44q-93 0 -158 -47q-23 -17 -36 -29q-25 -23 -29 -40l-18 4q-47 11 -77 59q-28 44 -28 95z
M545 104q4 3 9 6q-1 -3 -3 -6h-6zM555 103q3 5 3 9q26 15 50 15q30 0 55 -23q-49 -8 -108 -1z" />
    <glyph glyph-name="R" unicode="R" horiz-adv-x="1292" 
d="M418 463q1 10 -2 31zM1271 213q-23 2 -46 3q-7 -30 -15 -61q-11 -38 -38 -38q-55 0 -129 104q-54 75 -118 97q-31 10 -111 24q43 0 81.5 27t48.5 69q3 12 3 23q0 61 -80 101q-61 32 -232 42q-23 2 -49 2q-48 0 -123 -6q-101 -8 -121 -10q-114 -5 -177 -11q-22 -4 -67 -9
q-14 0 -37 4q-26 4 -35 4q2 -18 11 -41q3 -35 -1 -47q3 0 32 3q22 2 37 2q38 0 54 -14q20 -19 26 -69q2 -38 5 -77q3 -37 0 -116q-1 -14 3 -40.5t4 -38.5t-3 -22q-11 -44 -73 -57q-2 0 -42 1q-29 1 -35 -9v-41q-3 -12 -6 -37q54 28 140 28q14 0 44 -1t46 -1q39 0 108 -3
q75 -3 107 -3q5 -1 40 -6.5t51 -5.5q25 0 25 24q0 9 -3.5 29t-3.5 28q0 18 10 25q-9 4 -23 4q-8 0 -33 -3q-20 -3 -31 -1q-28 0 -66 8q-10 7 -15 59q-1 12 3.5 34t3.5 33q9 10 30 10q17 -1 34 -3q10 0 56 3q34 2 55 -4q89 -23 163 -116q33 -42 83 -63q11 -5 101 -32
q8 -3 84 -17q63 -12 84 -9q75 10 106 26q51 25 57 82q1 5 11 42q9 33 9 48q0 9 -4.5 14.5t-38.5 8.5zM658 397q-7 -44 -114 -62q-26 -5 -121 0q-7 39 -7 161q-2 15 -2 25q21 6 53 6q27 0 92 -8q35 -5 48 -10q24 -10 36 -32q22 -39 15 -80z" />
    <glyph glyph-name="S" unicode="S" horiz-adv-x="1076" 
d="M843 552q-37 4 -204 31q-125 20 -204 20q-35 0 -67 -4q-104 -10 -142 -18q-77 -18 -125 -58q-56 -48 -52 -130q4 -78 70 -109q35 -17 91 -29l95 -22q83 -22 278 -39q69 -5 206 -23q32 -6 34 -35q1 -28 -40 -41q-92 -31 -207 -31q-149 0 -275 49q-42 16 -58 23
q-31 14 -53 29q-10 7 -21 24.5t-18 23.5q-38 -19 -101 -5q5 -10 6 -29v-30q7 -51 3 -83q-6 -55 -27 -89q26 7 83 1q23 2 69 1q-9 4 -13 37q-4 29 -2 43q17 -14 53 -19q50 -7 56 -10q38 -11 106 -26q128 -27 286 -27q129 0 171 8q39 7 114 27q91 31 106 81q1 12 4 38
q5 14 11 41q2 29 -40 75q-57 62 -190 103q-54 17 -134 32l-133 26q-24 5 -70.5 22.5t-71.5 21.5q-44 8 -58 35q-7 12 -7 21q0 31 71 31q81 0 151 -22l179 -56q92 -32 93 -79q21 1 70 -14q46 -15 66 -13q-14 10 -15 65q-1 19 15 99q8 45 9 46q8 31 23 37q-86 20 -148 17
q10 -8 10 -26q0 -14 -8.5 -44t-8.5 -40q-1 12 -16 26t-28 14q-3 0 -6 -1z" />
    <glyph glyph-name="T" unicode="T" horiz-adv-x="1126" 
d="M34 632q-9 -24 -9 -50q0 -18 5.5 -52.5t5.5 -52.5q0 -14 -4 -46q-3 -28 -2 -47q59 5 86 4q3 0 32 2q20 2 31 -3q-14 6 -23 26t-8 37q1 34 54 62q32 16 103 19l94 4q6 -12 33 -11q-3 -14 -3 -30q0 -22 8 -61q8 -42 9 -61q4 -52 9 -155q2 -51 -5 -62q-11 -17 -62 -32
q-27 -7 -74 -5q-54 3 -74 0q-1 -12 2 -36l5 -36q1 -21 0 -50q11 0 31.5 5.5t28.5 6.5q31 0 91 3l163 17q101 8 300 -1q29 -1 87 -4q16 -3 31 -5q27 -5 40 -5q15 0 15 10q0 44 -12 75q-5 13 -6.5 14t-16.5 3q-25 -1 -76 0q-85 3 -145 49q-22 16 -32 56q-3 12 -11 66
q-11 82 -11 164q0 78 -2 84q69 9 147 0l59 -8q34 -5 55 -19q39 -25 39 -70q0 -20 -16 -78q9 2 20 2q16 0 48 -8.5t46 -9.5q-16 33 -16 95q0 32 5 80q4 42 16 105q-20 7 -50 7q-23 0 -63 -4q-44 -5 -57 -6q-56 -6 -167 -13q-39 0 -133 9h-155q-7 0 -77 2q-47 1 -77 -1
q-42 -2 -75 -10q-17 -4 -108 -4q-80 0 -89 2q-37 10 -39 10q-8 0 -17 -3q0 -10 16 -20v40z" />
    <glyph glyph-name="U" unicode="U" horiz-adv-x="1136" 
d="M38 564q0 -3 -5 -35q-3 -22 -1 -34q10 5 27 6q11 0 31.5 -1.5t27.5 -1.5q4 -20 5 -65q-11 -110 -15 -234q-2 -49 27 -97.5t71 -73.5q60 -34 159 -44q83 -3 166 -7q28 -2 56 -2q111 0 235 20q41 7 48 8q30 7 43.5 18.5t38.5 67.5q8 18 28 94l16 59q9 36 8 59q-1 12 -6 46
q-4 31 -4 49q0 32 13 54q12 19 61 25q9 1 74 2q-17 19 -17 46q0 20 10 38q-56 -1 -169 3q-15 1 -159 9q-88 4 -143 2q7 -39 -3 -87l126 -6q72 -7 118 -33q8 -20 18 -62q3 -35 -13 -85q-32 -104 -80 -159q-14 -15 -34.5 -25.5t-40.5 -19.5q-38 -19 -50 -23q-27 -11 -53 -11
q-74 -1 -133 10q-53 9 -71 35q-12 18 -19 60l-8 65q-13 77 -6 166q2 35 18 62q19 32 49 36q74 11 96 -16q-3 10 -3 24q0 12 14 82q-30 7 -78 6q-69 -2 -78 -2q-33 2 -81 -2q-79 -6 -80 -6q-42 -2 -118 2q-84 5 -118 4q-3 -19 7 -37z" />
    <glyph glyph-name="V" unicode="V" 
d="M29 570q-6 -21 -7 -57q-1 -42 -4 -57q37 13 63 13q31 0 60 -17q33 -20 67 -70q44 -67 57 -81q88 -94 142 -214l27 -56q16 -37 14 -58q0 1 2 1q2 -2 11 -2q10 0 37 4.5t33 4.5q29 0 73 6q62 8 72 9q79 8 106.5 8t32.5 2q9 4 14 25q6 32 23 94q2 7 53 121q11 27 38 81
q7 13 25.5 33.5t24.5 28.5l21 30q14 18 28.5 25t68.5 12q74 8 88 8q47 0 73 -17q-18 8 -18 32q0 12 6 33q3 17 7.5 36t17.5 23q-85 -2 -198 9q-71 7 -182 4q-67 4 -201 4q-1 -17 -7 -44q-7 -33 -8 -43q94 8 138 -9t44 -68q0 -29 -16 -73q-12 -34 -41 -82l-48 -79
q-50 -88 -74 -88q-17 0 -36 34q-91 166 -109 266q-6 29 -5 57q1 20 3 24.5t16 10.5q44 17 85 3q-4 8 -4 25q0 56 23 80q-68 -1 -192 -11q-131 -10 -191 -12q-51 3 -154 4q-4 0 -54 3q-35 1 -54 -5q-2 -43 -2 -42z" />
    <glyph glyph-name="W" unicode="W" horiz-adv-x="1578" 
d="M32 566l-4 -35q-3 -28 -3 -45q0 -23 5 -32q18 14 37 14q44 0 85 -75q28 -53 43 -111q7 -27 27 -175q5 -33 18 -75q4 -25 14 -55q-1 -3 1 -4q21 9 66 22q27 2 81 7q58 3 172 18q6 35 27 87l36 86q9 24 51 97q12 15 33 48q-1 -7 16 -35q21 -33 22 -37q15 -32 73 -105
q20 -26 49 -82q31 -59 47 -82q2 -5 5 -10q0 -2 13 -1q4 0 34 7q53 13 110 21q102 16 214 21q-6 27 -6 57q0 64 24 134q14 41 32 71q6 10 32 83q16 45 93 64q40 10 78 10q33 0 52 -8q-1 48 0 56q2 30 18 52q-31 4 -85 3q-62 -1 -85 1q-28 1 -80.5 10.5t-79 11t-84.5 19.5
q-54 17 -83 16q1 -9 -13 -47q-3 -16 -12 -46q78 -3 123 -32q25 -15 25 -71q0 -17 -3 -43q-4 -36 -47 -130q-1 -2 -26 -65q-16 -40 -32 -61q-8 8 -33 52q-15 21 -41 65q-33 66 -58 137q-17 48 -44 146q-11 55 -5 72q-12 2 -31 -2q-25 -6 -31 -6q-7 -1 -111 2q-116 3 -138 2
q-1 -14 -13 -38q-15 -31 -17 -37q-16 -48 -24 -91q-7 -34 -26 -81l-33 -78q-8 -31 -17 -62q-11 -41 -30 -55q-4 -3 -9 -3q-20 0 -24 75q-2 20 -10.5 58.5t-9.5 58.5q-4 59 -4 65q0 53 18 74q8 10 34.5 19t49.5 9q26 0 33 -12q-2 7 -2 15q0 38 32 99q-34 1 -92 -1
q-69 -3 -91 -3q-38 0 -195 -14q-44 -2 -131 -9q-7 0 -35 -7q-22 -6 -36 -4q3 -1 13 -2z" />
    <glyph glyph-name="X" unicode="X" horiz-adv-x="1705" 
d="M148 564q21 -37 12 -94q78 4 101 4q83 0 134.5 -20t118.5 -64l111 -74q-49 -39 -129 -87q-123 -73 -133 -80q-94 -60 -174 -72q-27 -4 -112 -4q-9 0 -28.5 4.5t-29.5 4.5q-9 -61 -21 -105q145 25 260 22q122 1 365 -8q29 -3 77 -3h23q62 0 98 -5q82 -12 107 -11
q8 62 31 83q-66 2 -88 5q-51 6 -84 25q-20 11 -20 28q0 16 17 38l30 35q7 8 18 19q4 1 7 1q4 0 9 -4q8 -7 13 -10q14 -8 40 -16l43 -12l93 -26q53 -16 84 -43q16 -13 16 -22q0 -22 -75 -22q-32 0 -55 3q15 -24 15 -64q0 -21 -6 -33q9 -1 19 -1q26 0 76.5 13t76.5 13
q36 0 86 -13l85 -24q-3 5 -10 13q95 18 178 28q7 0 102 9q14 1 38 -3q37 -8 38 -8q-11 20 -11 51q0 39 16 85q-80 -21 -134 -21q-69 0 -146 24q-17 5 -121 28q-41 9 -111 45q-75 38 -111 48q-20 6 -61.5 26t-59.5 25q16 9 52 24q21 7 62 23q54 25 121 43q32 8 83 16
q67 9 84 12q26 5 67 7q52 1 67 2q68 7 100 7q51 0 90 -11q4 10 4 31q0 30 0.5 35t5.5 26q4 17 3 26q-43 11 -131 25q-212 15 -418 47q-161 25 -259 47q-1 -17 -19.5 -49t-18.5 -49q32 -1 39 -2q23 -4 34 -14t11 -25q0 -27 -31 -60q-68 -73 -143 -98q-10 16 -36 29
q-33 17 -42 25q-46 40 -40 66q9 44 120 44h35q20 -1 25 -1q-11 12 -11 33q0 31 19 58q-27 -16 -71 -19q-37 -2 -75 -3q11 1 -200 1q-148 0 -249 -9q-25 -2 -51 -3q-33 -3 -47 -16q12 -2 29 -10q23 -12 29 -14z" />
    <glyph glyph-name="Y" unicode="Y" horiz-adv-x="1320" 
d="M539 570q-1 -30 7 -78q-118 2 -162 -34q-18 -14 -18 -35q0 -28 33.5 -68t56.5 -58q22 -13 65 -43l41 -30q26 -21 33 -35l47 41q18 15 48 50l41 59q22 36 31 66q7 22 7 38q0 40 -52 56q-16 5 -29 5q-17 0 -48 -13q9 12 9 35q0 13 -11 75q30 -11 79 -12q-57 1 82 1h226
q99 0 284 33l-28 -60q-21 -44 -21 -69q0 -22 14 -35q-10 5 -24 5q-49 0 -127 -46q-106 -63 -158 -126q-28 -33 -64 -98q-41 -75 -60 -101q-51 -72 -149 -139q-27 -18 -60 -52q-54 -56 -55 -56q-30 -29 -116 -96q-73 -56 -144 -56q-52 0 -109 25q-15 6 -100 51
q-43 23 -74 71.5t-31 95.5q0 71 75 94q30 9 52 9q41 0 77 -30q44 -36 44 -78q0 -10 -4 -20q-11 -34 -51 -49q-10 0 -22 -7q-5 -12 17 -21q13 -5 28 -5q41 0 91 37q41 31 90 98q60 81 81 103q14 14 46 41q-13 6 -33 22.5t-31 22.5q-31 15 -37 19q-17 10 -31 25q-19 18 -52 59
q-10 28 -39 80q-15 26 -48 69q-24 23 -82 50q-43 19 -93 20q-52 1 -63 -6q14 19 14 51q0 10 -2 35q-2 22 -2 34q45 -8 57 -6q17 5 53 11q101 7 186 -5q76 -11 145 -11q42 0 41 0q4 0 21 -5q13 -3 21 -1q-11 -6 -27 -14z" />
    <glyph glyph-name="Z" unicode="Z" horiz-adv-x="1285" 
d="M61 622q26 -72 26 -148q0 -45 -10 -78q27 10 70 10q42 0 75 -9q-19 20 -19 59q0 31 12 51q18 29 59 40q19 4 74 7q131 8 231 0q113 -8 119 -8q33 0 58 5q-30 -7 -71 -40q-38 -27 -110 -84q-42 -36 -108 -83q-45 -25 -128 -88q-68 -64 -237 -165q-16 -10 -65 -56
q-19 -11 -51 -37q49 26 128 26q22 0 64.5 -2.5t61.5 -2.5q59 0 178 -2q38 -5 114 -13q44 -1 132 -7l202 -23q28 -3 69 -1l69 6q20 1 56.5 -3t52.5 -4q11 0 21 1q12 50 19 74q13 40 32 69l81 100q-15 4 -41 5q-38 2 -41 2q-9 1 -65 11q-27 -81 -70 -101q-46 -21 -146 -27
q-93 -4 -182 0q-9 0 -48 4q-33 3 -52 3q-30 0 -49 -6q16 3 35 19l30 28q33 32 103 95q22 18 85 82q52 54 88 78q86 56 102 68q58 39 99 73q15 13 52 33q14 3 40 12q-1 6 -9 12t-9 10q-6 9 -9 38q-18 5 -51 5h-17q-33 0 -97 8q-68 9 -99 10q-64 2 -165 -4q-139 -7 -166 -8
q-62 4 -184 5q-7 0 -79 -10q-5 0 -110 -1q-36 -5 -109 -14q-31 -3 -32 -4q-9 -4 -7 -27q1 -10 3 -38z" />
    <glyph glyph-name="a" unicode="a" horiz-adv-x="1249" 
d="M1243 72q-10 -27 -16 -40q-4 -36 -2 -53q-17 -3 -81 4q-23 2 -60 0q-49 -3 -60 -3q-40 0 -118.5 13.5t-118.5 14.5q-35 0 -113 -9q-6 -1 -29 -6q-19 -5 -29 -5q-6 0 -10 1q9 15 15 47t13 45q9 -4 20 -4q43 0 70 28q12 13 12 26q0 10 -11 27q-13 21 -16 31
q-56 3 -127.5 -6t-106.5 -12h-31q-20 -1 -28 -6q-11 -13 -15 -21q-17 -17 -27 -25q-5 -7 -5 -15q0 -12 14 -22q24 -18 60 -18q21 0 55 6q40 8 50 9q-10 -25 -8 -91q-41 6 -63 8l-121 15q-66 7 -170 3q-52 -2 -99 -7q-2 0 -39 -8q-25 -5 -39 -2q22 53 27 82q9 0 22.5 -4
t20.5 -4q26 0 89 31q57 28 104 84q28 33 78 110q60 95 72 126.5t12 51.5q0 9 -4 13q-17 2 -29 0q-40 3 -60 4q-49 2 -97 -17q4 16 7 50q-2 2 -5 1q5 22 3 29q4 1 6 2q1 8 2 14l-1 -14q13 3 42 4.5t42 4.5q52 15 189 9q61 -2 149 12l146 25q-1 -18 8 -45q12 -34 14 -44
q9 -48 40 -106l57 -101q65 -119 85 -141q56 -65 74 -75q40 -23 81 -24l31 -5q21 -2 29 2zM639 280q20 3 45 -6q-10 3 -19 18q-2 3 -13 24q-25 52 -36 77q-39 61 -61 82q-3 -27 -20 -42l7 7l-55 -93q-33 -55 -50 -93q14 -2 36 4q17 6 35 11q37 9 63 9q58 1 68 2z" />
    <glyph glyph-name="b" unicode="b" horiz-adv-x="1274" 
d="M44 576q-2 -8 -4 -20q-9 -2 -12 -7zM1251 218q8 -18 8 -37q0 -48 -51 -94q-41 -37 -94.5 -57.5t-125.5 -20.5q-37 0 -111 7t-110 7q-26 0 -49 -3q-34 -3 -117 -4q-77 0 -118 -6q-56 -9 -167 -8q-175 -1 -263 -4q5 15 3 47q-1 24 -3 49q10 -5 19 -5t22 6q22 10 24 11
q43 16 51 21q26 14 39 37q15 27 18 65q3 34 5 69q11 70 8 114q-2 41 -26 53q-7 4 -61 15q-60 11 -121 -2q9 51 9 78q35 2 53 0q73 6 110 11q66 1 189 18q152 11 230 11q60 3 140 -7l137 -20q149 -21 166 -92q3 -11 3 -26q0 -37 -16 -66q-18 -34 -49 -35q42 -1 72 -9
q50 -13 87 -38q75 -53 89 -85zM544 495q-11 -28 -17 -68l-10 -68q35 -5 116 2q73 7 88 67q2 10 2 18q0 49 -75 61q-13 2 -115 4q3 -15 4 -22zM787 123q34 17 34 53q0 52 -47 77q-17 10 -44 13q-8 1 -45 3q-10 1 -47 4q-29 3 -47 3q-30 -1 -78 -5q0 -5 -1.5 -15t-1.5 -14
q-4 -21 -7 -69q-3 -44 -8 -68q22 8 52 10q21 1 57 -1q43 -2 54 -2q2 0 44 -1q27 -1 44 1q25 2 41 11z" />
    <glyph glyph-name="c" unicode="c" horiz-adv-x="953" 
d="M780 586q1 1 2 -17q11 5 14 27q0 2 2 35q44 -16 119 -1q-33 -53 -33 -111q0 -42 19 -74q-11 0 -35 3q-27 3 -39 3q-25 0 -37 -11q-16 51 -106 105q-22 13 -56 17q-3 1 -58 4q-58 4 -90 -13q-103 -52 -116 -163q-3 -27 -3 -52q0 -141 102 -206q49 -32 100 -30q9 1 68 0
q43 0 69 4q85 19 127 30q17 3 57 18q36 14 55 17q0 -8 2.5 -30.5t2.5 -33.5q0 -25 -12 -36q-32 -11 -53 -13q-50 -13 -74 -21q-95 -30 -244 -36q-187 -7 -271 23q-91 31 -132 58q-65 43 -86 112q-15 49 -15 96q0 100 67 173l49 53q28 30 56 45q75 41 168 55q88 14 162 14
q128 0 228 -40z" />
    <glyph glyph-name="d" unicode="d" horiz-adv-x="1009" 
d="M71 589v0h-7h7zM991 374q16 -62 2 -150q-5 -33 -9 -67q-6 -41 -19 -65q-21 -37 -83 -58q-51 -12 -101 -25q-78 -20 -172 -20q-60 0 -180.5 10.5t-180.5 10.5q-106 0 -192 -20q6 27 -5 77q-3 -1 105 -5q101 -3 101 123q0 34 -8 101q-9 64 -8 85q0 6 1 23q1 14 1 23
q0 52 -38 68q-24 9 -60 8q-6 -1 -29 1q-20 1 -31 -1q-17 -2 -26 -10q-3 10 -3 24q0 15 15 82q48 -1 139 7q95 9 141 9q180 0 245 -5q136 -11 237 -52q128 -52 158 -174zM695 192q29 89 29 143q0 44 -18 72q-12 20 -40 40q-12 9 -48 32q-40 25 -119 33q-10 -27 4 -40
q-25 -75 -25 -225q0 -2 -1 -41q-2 -28 0 -45q3 -24 12 -36q14 -19 65 -19q32 0 56 6q37 9 55 26t30 54z" />
    <glyph glyph-name="e" unicode="e" horiz-adv-x="1172" 
d="M55 604q-9 3 -9 2q11 -1 13 -2q39 -10 94 -13q47 -1 94 -3q43 -2 118 2q84 5 118 5q-3 0 75 -2q45 -1 74 2q182 21 196 22q34 2 88 0q73 -2 89 -2q-3 0 48 2q33 1 54 -1q29 -4 44 -14h12q-30 -21 -57 -75q-21 -48 -29 -73q-19 -40 -19 -50q0 -7 3 -14l-29 13q-49 5 -74 3
q27 25 27 46q0 53 -164 80q-62 11 -74 11q-22 0 -60 -8q-45 -8 -60 -10q-38 0 -75 1q-61 -2 -64 -16q7 -16 7 -38q0 -15 -4.5 -45.5t-4.5 -44.5q0 -11 2 -21q3 -17 26 -22q8 -1 42 -2l35 -1q23 -1 37 0q20 2 33 9q24 12 34 46q9 29 17 58q26 -7 39 -13q36 -9 54 -13
q-23 -59 -43 -118t-28 -89q-10 -36 -5 -53q-69 7 -115 20q32 35 32 52t-20 29q-15 9 -52 9q12 0 -82 -5q12 -85 16 -154q4 2 6 2q12 -7 70 2q66 6 99 6q149 7 205 16q101 17 146 80q11 16 23 46q0 2 5 24q4 16 8.5 20t17.5 4q35 0 73 -11q-29 -108 -37 -127l-36 -78
q-19 -47 -16 -82q-13 -2 -26 -1q-89 8 -134 13q-53 3 -112 -10q-17 -4 -41 -5q-15 0 -42 1q-32 1 -42 1q-298 0 -342 2q-103 5 -146 1q-64 -6 -96 -8q-59 -6 -58 -6q2 7 5 39q2 29 8.5 40t40.5 11q11 0 30.5 -1.5t24.5 -1.5q47 0 65 45q15 59 18 89q13 67 14 119
q3 109 0 130q-6 33 -26 42q-8 4 -52 10q-69 9 -75 9q-22 -7 -33 -12q8 12 10 44q2 40 3 46z" />
    <glyph glyph-name="f" unicode="f" horiz-adv-x="1165" 
d="M74 556q0 13 -7 31q68 -4 88 -2q143 15 209 15q39 0 114.5 -10.5t112.5 -10.5q98 -7 146 -14q36 -3 129 2q37 2 143 21q90 16 144 13q-23 -64 -30 -99q-1 0 -31 -70q-19 -44 -16 -74q-6 6 -17 6q-21 0 -19 0q-39 8 -58 14q3 6 13 17.5t13 20.5q13 40 9 59q-2 14 -17 19
q-8 3 -30 4q-82 5 -163 11q-95 5 -163 0q-9 -1 -52 -5q-31 -4 -51 -4q-23 0 -29.5 -4t-9.5 -24q-10 -71 -10 -75q0 -14 3 -20q6 -11 45 -20q19 -5 53 -3q57 3 55 3q73 0 46 -1q31 1 41 14q13 32 18 52q11 30 16 45q9 -5 56 -21q36 -13 55 -30q-10 -6 -14.5 -20.5l-8.5 -27.5
q-19 -45 -30 -67l-23 -65q-27 -56 -27 -69q-78 18 -121 15q13 6 25 24.5t14 34.5q3 23 -8 29q-7 4 -33 4q-64 0 -76 -1q-48 -5 -67 -26l10 -64q9 -42 33 -52q20 -10 52 -10q18 0 117 16q1 -8 -2 -35q-3 -30 -3 -44q0 -39 16 -48q-19 -1 -49 0q-40 2 -50 2q-26 0 -74 -1
q-52 -1 -74 -1q-37 0 -123 4q-78 4 -122 2q-16 0 -55 -3q-35 -3 -54.5 -3t-49.5 -4q-33 -4 -47 -5q7 17 9 41q0 2 3 44q7 0 22 -1q12 -2 22 1q55 15 76 26q37 21 43 48q3 14 0 39q-5 32 -5 39q-1 93 2 155q1 7 5 30q3 20 2 31q-6 34 -11 50q-23 8 -52 8q-26 0 -82 -9
q-2 33 11 89z" />
    <glyph glyph-name="g" unicode="g" 
d="M1014 588q-1 28 7 73q84 -1 127 -4q-18 -10 -34 -42q-14 -28 -17 -52q-2 -16 -2 -35q0 -64 18 -112q-71 8 -108 13q3 12 2 17q-9 43 -67 66q-9 4 -99 28l-114 32q-66 16 -117 16q-63 0 -115 -24q-62 -28 -82 -80q-27 -73 -27 -152q0 -92 37 -161q21 -41 71 -65
q47 -22 103 -22q96 0 145 58q17 19 17 53q0 42 -25 60q-17 12 -48 12q-16 0 -54.5 -5t-54.5 -3q5 7 13 42q6 27 20.5 31.5t40.5 1.5l40 -4q67 -1 101 0q63 -3 233 5q99 5 148 8h50q31 0 48 7q1 -21 -6.5 -63t-6.5 -64q-52 8 -59 8q-21 0 -41 -7q-41 -14 -47 -18
q-21 -10 -35 -33q-11 -19 -12 -47q0 -24 -1 -49q-5 -33 -9 -49q-1 -13 5 -26q10 -20 11 -24q-15 7 -38 7h-38q4 75 -43 101q-13 6 -27 6t-43 -10q-66 -22 -100 -32q-123 -43 -128 -44q-81 -23 -168 -26q-83 -2 -155 23q-65 30 -96 47q-22 10 -44 26q-12 8 -41 32l-57 37.5
t-39 49.5q-16 49 -16 106q0 63 20 107t84 103q0 1 47 52q29 32 53 42q53 24 125 34q40 5 131 9q100 5 159 5q241 0 391 -74z" />
    <glyph glyph-name="h" unicode="h" horiz-adv-x="1412" 
d="M40 626q2 26 2 40q20 8 99 5q9 -1 95 -3q57 -1 94 -6q57 -9 86 -15q77 -2 116 1q27 0 149 3q-8 -21 -9 -55q-1 -29 -1 -57l-70 -2t-65 -16q-32 -17 -38.5 -57.5t-8.5 -59.5q0 -4 -6 -28q-5 -17 -4 -28q83 19 149 20q26 1 77.5 -5t76.5 -6q19 0 59 -4.5t61 -4.5
q2 108 -21 152q-16 32 -57 42q-29 7 -50 3q-26 -8 -37 -13q0 8 6.5 23.5t6.5 25.5q0 37 -4 60q24 7 34 12q17 3 68 0q139 -10 193 -16q193 -10 290 -16q21 0 25 -6l4 -28q0 -3 5 -24q4 -15 3 -24q-73 -3 -67 -3q-20 0 -26 -3.5t-16 -22.5q-16 -32 -18 -77q0 -11 2 -79
q3 -85 4 -92q6 -54 32 -85q17 -20 61 -26q34 -1 68 -3q0 -9 -6.5 -40t-6.5 -47q0 -24 11 -37q-8 1 -23 -3q-13 -3 -23 0q-31 7 -57 3q-21 -4 -46 -4t-71 5q-51 6 -72 7q-18 1 -23 -3t-23 -4q-71 0 -109 -1q-17 -1 -58 2q-37 4 -57 1q-11 -1 -47 -13q-30 -11 -47 -8l13 41
q9 30 9 48q0 20 -11 30q18 -5 45 -5q67 0 105 24q22 13 20 52l1 35q1 22 -3 34q-33 -2 -52 0q-65 -5 -97 -9q-108 -4 -162 -4q-24 -2 -63 3q-49 5 -62 5l6 -76q9 -44 45 -58q27 -11 74 -11q7 0 28.5 2t33.5 2q22 0 34 -6q-15 -61 -9 -101l-94 9q2 -7 2 -11q-74 -4 -76 -4
q-39 7 -58 11q-18 1 -45 -3q-36 -4 -44 -4h-184q-108 -1 -179 -30q5 9 5 23q0 7 -2 21.5t-2 21.5q0 15 7.5 26t29.5 11q10 0 30 -3t29 -3q78 0 92 157q2 17 2 36q0 32 -5 84q-7 64 -8 83q-3 73 -51 109q-18 13 -46 13q-10 0 -34 -2.5t-36 -1.5q-2 29 6 82z" />
    <glyph glyph-name="i" unicode="i" horiz-adv-x="787" 
d="M54 590q3 11 41 11l51 -2q110 6 165 10q209 8 416 -8q-16 -14 -16 -40q0 -16 8 -43q5 -18 11 -37q-8 -2 -18 -2q-12 0 -36.5 3t-36.5 3q-32 0 -50 -18q-21 -23 -21 -72q0 -34 14 -103q3 -46 7 -93q7 -57 43 -77q22 -12 54 -12q12 0 35.5 2t34.5 2q10 0 19 -1q0 -9 -2 -35
q-2 -29 -2 -43q0 -34 11 -45q-141 -14 -251 -7q-166 8 -249 11q-98 2 -148 0q-46 2 -80 -6q-1 6 6 54q4 43 5 64q55 2 76 7q48 9 62 36q8 14 10 42l2 45q2 66 2 99q3 75 -4 107q-11 50 -25 58q-23 12 -73 12q-39 0 -52 -11q1 52 -7 87z" />
    <glyph glyph-name="j" unicode="j" horiz-adv-x="1062" 
d="M405 585q-5 4 -6 9q12 13 63 14q140 3 170 1q58 -2 148 1q90 7 134 13q8 1 48 9q37 7 56 7q21 0 32 -7.5t11 -30.5q0 -9 -2 -28.5t-2 -28.5q0 -24 11 -35q-14 0 -47.5 7t-48.5 7q-12 0 -20 -3q-23 -7 -23 -39q0 -10 3 -35q8 -50 8 -99q0 -96 -28 -176q-31 -92 -96 -118
q-85 -36 -215 -64q-78 -18 -126 -18q-89 0 -145 6q-29 4 -67 17l-64 23l-52 16q-31 10 -49 24q-91 72 -100 125q-11 62 -2 91q5 16 26 30q12 8 36 20q35 16 68 16q55 0 89 -43q14 -17 14 -40q0 -35 -27.5 -65t-61.5 -30q-10 0 -21 3q25 -29 40 -43q24 -27 86 -43
q67 -17 159 -2q103 16 141 46q68 55 68 184q0 52 -11 111q-8 46 -11 53q-11 25 -42 30.5t-68 5.5q-57 0 -84 -15l4 40q1 21 2.5 42.5t8.5 40.5z" />
    <glyph glyph-name="k" unicode="k" horiz-adv-x="1302" 
d="M35 605q12 32 101 27q144 -10 217 -16q138 -2 208 0q77 0 58 -1q34 1 54 12q1 -14 -4.5 -42.5t-5.5 -42.5q0 -12 3 -22q-20 5 -28 9q3 -1 -51 -3q-63 -2 -85 -26.5t-23 -87.5q-1 -71 -3 -82q25 6 40 6t50 13l52 21q68 29 100 45q14 5 50 13q32 7 49 14q29 13 31 14
q13 10 12 28q-3 31 -34 42q-25 9 -63 9q-44 0 -75 -10q18 37 4 64q35 2 92 0q77 -2 93 -2q34 0 98.5 -6.5t94.5 -6.5q89 -2 181 -7q-6 -59 -4 -87q-15 -2 -43 4q-31 7 -44 7q-49 0 -116 -29q-117 -51 -161 -97q60 -37 111 -89q76 -69 116 -101q37 -33 39 -35q23 -18 47 -21
q17 -2 56.5 7t59.5 6q-1 -7 -1 -15q0 -31 20 -79q-60 1 -177.5 -29.5t-176.5 -30.5q-17 0 -33 2q-49 5 -89 46l-67 81q-79 88 -103 108q-56 46 -93 52q-44 7 -74 3q-32 -5 -32 -37q0 -24 19 -62q10 -20 39 -33q12 -5 51 -17q54 -16 132 -5q-2 -10 -2 -23q0 -10 1.5 -29.5
t1.5 -28.5q0 -20 -6 -34q-14 -1 -87 10q-102 7 -155 7q-157 7 -346 -13q-1 0 -54 -8q-34 -5 -54 -3q8 15 8 34q0 7 -2 28q-2 18 -1 29h29q106 8 140 70q15 27 15 71q0 14 -3 58q-2 35 0 55q3 34 3 57q0 72 -32 100q-26 24 -68 24q-11 0 -34 -2t-34 -2q-1 6 -1 116z" />
    <glyph glyph-name="l" unicode="l" horiz-adv-x="1041" 
d="M42 571q-4 6 -4 9q29 8 84 7q182 -5 179 -5q35 0 103.5 3.5t103.5 3.5q50 0 90 -5q-12 -41 3 -89q-11 -3 -58 -5q-38 -2 -57 -11q-53 -24 -63 -87q-3 -25 -1 -75q3 -51 0 -75q-9 -70 -6 -85q7 -50 7 -45q20 -1 88 -5q55 -3 89 -3q58 0 103 9q81 15 86.5 17t39.5 9
q26 5 39 13q38 22 38 78q0 14 -3 25q23 -9 64 -13q4 0 67 -3q-17 -70 -27 -105q-24 -108 -22 -152q-27 -9 -63 -9q-25 0 -76.5 6.5t-77.5 6.5q-45 0 -142 17q-114 19 -234 19q-37 0 -72 -2q-104 -5 -157 -7l-64 -4q-38 -5 -61 -17q0 -13 7 82q5 -2 16 1q16 5 17 5l39.5 2
t31.5 12q24 23 32 65q18 84 13 202q0 9 1 30t1 31q0 60 -31 73q-34 15 -79 15q-28 0 -44 -8q-2 16 0 43q2 38 2 44z" />
    <glyph glyph-name="m" unicode="m" horiz-adv-x="1588" 
d="M56 531q5 23 0 45q8 2 69 2q103 0 298 9q2 0 72 2q44 0 71 4q46 7 43 7q17 0 27 -10q26 -43 34 -68q44 -71 60 -114q30 -76 47 -114l16 -46q12 -30 29 -37q-2 26 14 64q14 30 27 61q36 72 58 106l36 67q31 59 43 89q9 16 22 19q7 1 31 -3q53 -8 83 -6q40 1 115 -15.5
t111 -16.5q16 0 51 6t52 5q15 -1 16.5 -1.5t5.5 -11.5q2 -6 2 -15q0 -7 -2.5 -23t-2.5 -24q0 -18 12 -27q-80 12 -76 12q-43 0 -55 -37q-9 -28 -9 -62q0 -46 19 -118q9 -39 17 -79q14 -45 47 -58q38 -14 78 -21q12 -2 34.5 2.5t34.5 3.5q0 -6 -5.5 -36.5t-5.5 -46.5
q0 -30 16 -36q-65 10 -97 16q-96 0 -143 -4q-98 5 -186 -3q-106 -9 -146 -30q3 15 3 30q0 19 -12 72q7 2 16 2q8 0 24 -1.5t23 -1.5q24 0 34 14q7 12 7 25t-8 34q-11 27 -13 33q-20 79 -29 99q-18 40 -21 51q0 2 -1 23q-1 14 -7 21q-27 -41 -39 -64q-22 -41 -33 -60
q-2 -6 -15 -41q-10 -25 -19 -39q-81 -117 -94 -173q-9 -1 -71 1q-42 1 -69 -6q1 20 -26 58q-34 49 -66 80q-20 21 -58 73q-35 49 -59 71l-105 85q-20 -70 -25 -107q-16 -55 -13 -99q1 -36 2 -38q3 -14 5.5 -16.5t19.5 -7.5q65 -19 82 -21q13 0 35.5 3.5t31.5 3.5
q-5 -16 -5 -45q0 -32 7 -44q-14 0 -21 -1q-1 -7 -51 -7q-34 0 -98.5 4t-67.5 4q-20 0 -69 1q-45 1 -69 1q-32 0 -66 -11q-8 -2 -61 -22q5 30 8 45q-1 20 -2 33q6 9 26 10q15 0 30 1q73 15 115 102q20 42 38 100l28 102q13 45 13 65q0 37 -33 63q-24 -7 -89 -8
q-58 -1 -87 -13q-9 63 -11 95z" />
    <glyph glyph-name="n" unicode="n" horiz-adv-x="1380" 
d="M30 531l-6 3q-6 22 35 27q30 1 60 1q223 17 296 29q64 11 143 7q3 0 30 2q20 2 28.5 -1.5t10.5 -6.5q5 -11 6 -12q15 -23 49 -56q37 -36 51 -53q59 -77 79 -106q32 -47 119 -101q19 -11 63 -50q38 -34 64 -46q1 21 -2.5 59.5t-3.5 57.5q0 63 -1 69q-3 43 -18 63
q-11 15 -40 33q-52 33 -58 36q-28 13 -75 18q-16 2 -77 5q1 8 13 40q9 26 9 41q0 8 -2 15q20 2 42 2q38 0 122 -12q80 -12 123 -10q87 3 109 2q57 -7 86 -11q67 -1 102 11q-17 -27 -17 -57q0 -31 19 -68q-26 9 -59.5 12l-64.5 6q-15 2 -28 2q-76 0 -73 -60q15 -114 28 -171
q5 -31 9 -121q3 -76 14 -120q-7 2 -18 2q-5 0 -69 -10q-53 -8 -115 -2q-75 6 -100 17t-53 30l-48 36q-75 45 -115 63q-91 56 -134 86l-123 82l-26 26q-19 18 -30 18q-6 0 -11 -4q-17 -16 -9 -74q1 -9 4 -58q1 -36 8 -53.5t22 -30.5q36 -31 80 -31q13 0 45 6q29 5 47 3
q-8 -23 -8 -47q0 -38 21 -80q-15 -2 -39 3q-35 6 -39 6q-88 9 -132 14q-32 3 -83 0q-67 -5 -84 -5q-65 -3 -98 -5q-7 0 -31 -4q-20 -4 -31 -2q-5 40 -4 61q-6 41 -10 61q21 2 61 -3q44 -6 63 -6q28 0 48 8q25 10 25 48q0 10 -2 31t-2 30q2 80 1 104q-4 61 -26 100
q-25 45 -96 45q-38 0 -72 -13q-4 56 0 103z" />
    <glyph glyph-name="o" unicode="o" horiz-adv-x="1285" 
d="M705 622q-10 0 -22 -2q-19 0 -14 0zM1258 378q21 -37 22.5 -67t1.5 -47q0 -84 -35 -129q-68 -87 -166 -124q-133 -49 -226 -49q-30 0 -109 5q-70 5 -110 3q-83 -4 -151 7q-74 20 -110 34l-116 40q-23 9 -50 29l-47 34q-56 38 -79 69q-59 79 -59 115q0 45 47 109
q43 60 119 102q26 14 145 64q61 26 181 31l94 5q49 7 73 11q236 -1 393 -90q51 -28 136 -98q26 -21 46 -54zM905 179q8 34 8 66q0 33 -9 68q-20 79 -38 110q-11 19 -49 43q-21 13 -61 33q-46 17 -70 23h1l-14 4q6 -2 13 -4q-131 -10 -178 -25q-97 -32 -117 -118
q-10 -43 -10 -83q0 -41 11 -84q14 -56 103 -117q71 -49 170 -48q49 3 74 6q37 2 68 14q77 31 98 112z" />
    <glyph glyph-name="p" unicode="p" horiz-adv-x="1147" 
d="M50 586v0q0 10 1 17zM49 573q-12 10 1 13zM958 618q60 -9 108 -46q54 -41 64 -96q3 -16 3 -41q0 -44 -20 -68q-55 -63 -165 -95q-121 -35 -265 -34q-16 0 -85 3q-52 2 -85 1q-2 -10 -2 -21q0 -32 14.5 -62t37.5 -43q36 -20 91 -20q45 0 98 13q-8 -19 -8 -51
q-1 -27 -1 -53q-9 3 -23 1q-21 -4 -24 -4h-69q-98 -5 -160 2q-24 2 -52 2q-19 0 -78 -3q-49 -2 -79 0q-48 2 -118 -4l-44 -2q-25 -2 -43 -8q8 12 6 27l-4 29q-2 22 0 26q3 6 23 6q67 -3 107 11q29 10 36 45q2 13 2 63q0 85 -24 256q-7 47 -23.5 57t-54.5 10q-53 0 -70 -14
q0 55 -1 81q2 1 54 1q37 0 148 7q57 8 84 15q30 4 127 0q35 -1 105 9.5t106 8.5q22 -1 142 -1q87 0 142 -8zM736 358q3 8 8 32t5 36q0 24 -17 47q-35 46 -77 53q-57 5 -86 5q-48 5 -52 4q-25 -1 -31 -11q-3 -6 -3 -36l-2 23v-124q-3 -61 0 -67q8 -16 60 -16q20 0 51 2
q36 3 37 4q64 2 90 23q11 9 17 25z" />
    <glyph glyph-name="q" unicode="q" horiz-adv-x="1211" 
d="M1302 33q4 -70 -10 -109q-17 -51 -68 -79q-45 -25 -109 -29h-115q-73 0 -140 32q-70 33 -109 92q-19 48 -24 74q-230 -6 -231 -6q-92 0 -287 40q-77 16 -93 26q-20 12 -35 47l-20 56q-24 59 -24 103q0 49 19 101q21 58 55 83q24 19 66 36l70 26q69 27 121 36l140 26
q81 14 140 14q6 5 22 5q-4 0 51 -9q106 -18 113 -21q116 -38 141 -47q78 -32 129 -74t69 -100q8 -20 15 -40q9 -26 7 -41q-17 -37 -31 -53q-26 -65 -41 -88q-43 -70 -172 -95l-17 -3q34 -48 62 -64.5l55 -32.5q32 -20 55 -20q18 0 35 11q35 23 40 43q4 43 3 65q20 -8 58 -7
q58 2 60 2zM353 275q0 -51 28 -95q30 -48 77 -59l18 -4q4 17 29 40q13 12 36 29q65 47 158 47q111 0 150 -44q12 14 16 40q2 11 3 44q2 58 -5 88q-10 46 -46 74q-50 38 -126 69q-51 21 -81 15l5 3q-42 -9 -84 -17q-47 -12 -77 -32q-58 -38 -82 -108q-19 -56 -19 -90z
M545 104h6q2 3 3 6q-5 -3 -9 -6zM555 103q59 -7 108 1q-25 23 -55 23q-24 0 -50 -15q0 -4 -3 -9z" />
    <glyph glyph-name="r" unicode="r" horiz-adv-x="1292" 
d="M416 494q3 -21 2 -31zM1271 213q34 -3 38.5 -8.5t4.5 -14.5q0 -15 -9 -48q-10 -37 -11 -42q-6 -57 -57 -82q-31 -16 -106 -26q-21 -3 -84 9q-76 14 -84 17q-90 27 -101 32q-50 21 -83 63q-74 93 -163 116q-21 6 -55 4q-46 -3 -56 -3q-17 2 -34 3q-21 0 -30 -10
q1 -11 -3.5 -33t-3.5 -34q5 -52 15 -59q38 -8 66 -8q11 -2 31 1q25 3 33 3q14 0 23 -4q-10 -7 -10 -25q0 -8 3.5 -28t3.5 -29q0 -24 -25 -24q-16 0 -51 5.5t-40 6.5q-32 0 -107 3q-69 3 -108 3q-16 0 -46 1t-44 1q-86 0 -140 -28q3 25 6 37v41q6 10 35 9q40 -1 42 -1
q62 13 73 57q3 10 3 22t-4 38.5t-3 40.5q3 79 0 116q-3 39 -5 77q-6 50 -26 69q-16 14 -54 14q-15 0 -37 -2q-29 -3 -32 -3q4 12 1 47q-9 23 -11 41q9 0 35 -4q23 -4 37 -4q45 5 67 9q63 6 177 11q20 2 121 10q75 6 123 6q26 0 49 -2q171 -10 232 -42q80 -40 80 -101
q0 -11 -3 -23q-10 -42 -48.5 -69t-81.5 -27q80 -14 111 -24q64 -22 118 -97q74 -104 129 -104q27 0 38 38q8 31 15 61q23 -1 46 -3zM658 397q7 41 -15 80q-12 22 -36 32q-13 5 -48 10q-65 8 -92 8q-32 0 -53 -6q0 -10 2 -25q0 -122 7 -161q95 -5 121 0q107 18 114 62z" />
    <glyph glyph-name="s" unicode="s" horiz-adv-x="1076" 
d="M829 548q3 1 6 1q13 0 28 -14t16 -26q0 10 8.5 40t8.5 44q0 18 -10 26q62 3 148 -17q-15 -6 -23 -37q-1 -1 -9 -46q-16 -80 -15 -99q1 -55 15 -65q-20 -2 -66 13q-49 15 -70 14q-1 47 -93 79l-179 56q-70 22 -151 22q-71 0 -71 -31q0 -9 7 -21q14 -27 58 -35
q25 -4 71.5 -21.5t70.5 -22.5l133 -26q80 -15 134 -32q133 -41 190 -103q42 -46 40 -75q-6 -27 -11 -41q-3 -26 -4 -38q-15 -50 -106 -81q-75 -20 -114 -27q-42 -8 -171 -8q-158 0 -286 27q-68 15 -106 26q-6 3 -56 10q-36 5 -53 19q-2 -14 2 -43q4 -33 13 -37q-46 1 -69 -1
q-57 6 -83 -1q21 34 27 89q4 32 -3 83v30q-1 19 -6 29q63 -14 101 5q7 -6 18 -23.5t21 -24.5q22 -15 53 -29q16 -7 58 -23q126 -49 275 -49q115 0 207 31q41 13 40 41q-2 29 -34 35q-137 18 -206 23q-195 17 -278 39l-95 22q-56 12 -91 29q-66 31 -70 109q-4 82 52 130
q48 40 125 58q38 8 142 18q32 4 67 4q79 0 204 -20q167 -27 204 -31z" />
    <glyph glyph-name="t" unicode="t" horiz-adv-x="1126" 
d="M34 592q-16 10 -16 20q9 3 17 3q2 0 39 -10q9 -2 89 -2q91 0 108 4q33 8 75 10q30 2 77 1q70 -2 77 -2h155q94 -9 133 -9q111 7 167 13q13 1 57 6q40 4 63 4q30 0 50 -7q-12 -63 -16 -105q-5 -48 -5 -80q0 -62 16 -95q-14 1 -46 9.5t-48 8.5q-11 0 -20 -2q16 58 16 78
q0 45 -39 70q-21 14 -55 19l-59 8q-78 9 -147 0q2 -6 2 -84q0 -82 11 -164q8 -54 11 -66q10 -40 32 -56q60 -46 145 -49q51 -1 76 0q15 -2 16.5 -3t6.5 -14q12 -31 12 -75q0 -10 -15 -10q-13 0 -40 5q-15 2 -31 5q-58 3 -87 4q-199 9 -300 1l-163 -17q-60 -3 -91 -3
q-8 -1 -28.5 -6.5t-31.5 -5.5q1 29 0 50l-5 36q-3 24 -2 36q20 3 74 0q47 -2 74 5q51 15 62 32q7 11 5 62q-5 103 -9 155q-1 19 -9 61q-8 39 -8 61q0 16 3 30q-27 -1 -33 11l-94 -4q-71 -3 -103 -19q-53 -28 -54 -62q-1 -17 8 -37t23 -26q-11 5 -31 3q-29 -2 -32 -2
q-27 1 -86 -4q-1 19 2 47q4 32 4 46q0 18 -5.5 52.5t-5.5 52.5q0 26 9 50v-40z" />
    <glyph glyph-name="u" unicode="u" horiz-adv-x="1136" 
d="M43 553q-10 18 -7 37q34 1 118 -4q76 -4 118 -2q1 0 80 6q48 4 81 2q9 0 78 2q48 1 78 -6q-14 -70 -14 -82q0 -14 3 -24q-22 27 -96 16q-30 -4 -49 -36q-16 -27 -18 -62q-7 -89 6 -166l8 -65q7 -42 19 -60q18 -26 71 -35q59 -11 133 -10q26 0 53 11q12 4 50 23
q20 9 40.5 19.5t34.5 25.5q48 55 80 159q16 50 13 85q-10 42 -18 62q-46 26 -118 33l-126 6q10 48 3 87q55 2 143 -2q144 -8 159 -9q113 -4 169 -3q-10 -18 -10 -38q0 -27 17 -46q-65 -1 -74 -2q-49 -6 -61 -25q-13 -22 -13 -54q0 -18 4 -49q5 -34 6 -46q1 -23 -8 -59
l-16 -59q-20 -76 -28 -94q-25 -56 -38.5 -67.5t-43.5 -18.5q-7 -1 -48 -8q-124 -20 -235 -20q-28 0 -56 2q-83 4 -166 7q-99 10 -159 44q-42 25 -71 73.5t-27 97.5q4 124 15 234q-1 45 -5 65q-7 0 -27.5 1.5t-31.5 1.5q-17 -1 -27 -6q-2 12 1 34q5 32 5 35z" />
    <glyph glyph-name="v" unicode="v" 
d="M18 539q0 -1 2 42q19 6 54 5q50 -3 54 -3q103 -1 154 -4q60 2 191 12q124 10 192 11q-23 -24 -23 -80q0 -17 4 -25q-41 14 -85 -3q-14 -6 -16 -10.5t-3 -24.5q-1 -28 5 -57q18 -100 109 -266q19 -34 36 -34q24 0 74 88l48 79q29 48 41 82q16 44 16 73q0 51 -44 68t-138 9
q1 10 8 43q6 27 7 44q134 0 201 -4q111 3 182 -4q113 -11 198 -9q-13 -4 -17.5 -23t-7.5 -36q-6 -21 -6 -33q0 -24 18 -32q-26 17 -73 17q-14 0 -88 -8q-54 -5 -68.5 -12t-28.5 -25l-21 -30q-6 -8 -24.5 -28.5t-25.5 -33.5q-27 -54 -38 -81q-51 -114 -53 -121
q-17 -62 -23 -94q-5 -21 -14 -25q-5 -2 -32.5 -2t-106.5 -8q-10 -1 -72 -9q-44 -6 -73 -6q-6 0 -33 -4.5t-37 -4.5q-9 0 -11 2q-2 0 -2 -1q2 21 -14 58l-27 56q-54 120 -142 214q-13 14 -57 81q-34 50 -67 70q-29 17 -60 17q-26 0 -63 -13q3 15 4 57q1 36 7 57z" />
    <glyph glyph-name="w" unicode="w" horiz-adv-x="1578" 
d="M34 564q-10 1 -13 2q14 -2 36 4q28 7 35 7q87 7 131 9q157 14 195 14q22 0 91 3q58 2 92 1q-32 -61 -32 -99q0 -8 2 -15q-7 12 -33 12q-23 0 -49.5 -9t-34.5 -19q-18 -21 -18 -74q0 -6 4 -65q1 -20 9.5 -58.5t10.5 -58.5q4 -75 24 -75q5 0 9 3q19 14 30 55q9 31 17 62
l33 78q19 47 26 81q8 43 24 91q2 6 17 37q12 24 13 38q22 1 138 -2q104 -3 111 -2q6 0 31 6q19 4 31 2q-6 -17 5 -72q27 -98 44 -146q25 -71 58 -137q26 -44 41 -65q25 -44 33 -52q16 21 32 61q25 63 26 65q43 94 47 130q3 26 3 43q0 56 -25 71q-45 29 -123 32q9 30 12 46
q14 38 13 47q29 1 83 -16q58 -18 84.5 -19.5t79 -11t80.5 -10.5q23 -2 85 -1q54 1 85 -3q-16 -22 -18 -52q-1 -8 0 -56q-19 8 -52 8q-38 0 -78 -10q-77 -19 -93 -64q-26 -73 -32 -83q-18 -30 -32 -71q-24 -70 -24 -134q0 -30 6 -57q-112 -5 -214 -21q-57 -8 -110 -21
q-30 -7 -34 -7q-13 -1 -13 1q-3 5 -5 10q-16 23 -47 82q-29 56 -49 82q-58 73 -73 105q-1 4 -22 37q-17 28 -16 35q-21 -33 -33 -48q-42 -73 -51 -97l-36 -86q-21 -52 -27 -87q-114 -15 -172 -18q-54 -5 -81 -7q-45 -13 -66 -22q-2 1 -1 4q-10 30 -14 55q-13 42 -18 75
q-20 148 -27 175q-15 58 -43 111q-41 75 -85 75q-19 0 -37 -14q-5 9 -5 32q0 17 3 45l4 35z" />
    <glyph glyph-name="x" unicode="x" horiz-adv-x="1705" 
d="M204 539q-6 2 -29 14q-17 8 -29 10q14 13 47 16q26 1 51 3q101 9 249 9q211 0 200 -1q38 1 75 3q44 3 71 19q-19 -27 -19 -58q0 -21 11 -33q-5 0 -25 1h-35q-111 0 -120 -44q-6 -26 40 -66q9 -8 42 -25q26 -13 36 -29q75 25 143 98q31 33 31 60q0 15 -11 25t-34 14
q-7 1 -39 2q0 17 18.5 49t19.5 49q98 -22 259 -47q206 -32 418 -47q88 -14 131 -25q1 -9 -3 -26q-5 -21 -5.5 -26t-0.5 -35q0 -21 -4 -31q-39 11 -90 11q-32 0 -100 -7q-15 -1 -67 -2q-41 -2 -67 -7q-17 -3 -84 -12q-51 -8 -83 -16q-67 -18 -121 -43q-41 -16 -62 -23
q-36 -15 -52 -24q18 -5 59.5 -25t61.5 -26q36 -10 111 -48q70 -36 111 -45q104 -23 121 -28q77 -24 146 -24q54 0 134 21q-16 -46 -16 -85q0 -31 11 -51q-1 0 -38 8q-24 4 -38 3q-95 -9 -102 -9q-83 -10 -178 -28q7 -8 10 -13l-85 24q-50 13 -86 13q-26 0 -76.5 -13
t-76.5 -13q-10 0 -19 1q6 12 6 33q0 40 -15 64q23 -3 55 -3q75 0 75 22q0 9 -16 22q-31 27 -84 43l-93 26l-43 12q-26 8 -40 16q-5 3 -13 10q-5 4 -9 4q-3 0 -7 -1q-11 -11 -18 -19l-30 -35q-17 -22 -17 -38q0 -17 20 -28q33 -19 84 -25q22 -3 88 -5q-23 -21 -31 -83
q-25 -1 -107 11q-36 5 -98 5h-23q-48 0 -77 3q-243 9 -365 8q-115 3 -260 -22q12 44 21 105q10 0 29.5 -4.5t28.5 -4.5q85 0 112 4q80 12 174 72q10 7 133 80q80 48 129 87l-111 74q-67 44 -118.5 64t-134.5 20q-23 0 -101 -4q9 57 -12 94z" />
    <glyph glyph-name="y" unicode="y" horiz-adv-x="1320" 
d="M539 570q-1 -30 7 -78q-118 2 -162 -34q-18 -14 -18 -35q0 -28 33.5 -68t56.5 -58q22 -13 65 -43l41 -30q26 -21 33 -35l47 41q18 15 48 50l41 59q22 36 31 66q7 22 7 38q0 40 -52 56q-16 5 -29 5q-17 0 -48 -13q9 12 9 35q0 13 -11 75q30 -11 79 -12q-57 1 82 1h226
q99 0 284 33l-28 -60q-21 -44 -21 -69q0 -22 14 -35q-10 5 -24 5q-49 0 -127 -46q-106 -63 -158 -126q-28 -33 -64 -98q-41 -75 -60 -101q-51 -72 -149 -139q-27 -18 -60 -52q-54 -56 -55 -56q-30 -29 -116 -96q-73 -56 -144 -56q-52 0 -109 25q-15 6 -100 51
q-43 23 -74 71.5t-31 95.5q0 71 75 94q30 9 52 9q41 0 77 -30q44 -36 44 -78q0 -10 -4 -20q-11 -34 -51 -49q-10 0 -22 -7q-5 -12 17 -21q13 -5 28 -5q41 0 91 37q41 31 90 98q60 81 81 103q14 14 46 41q-13 6 -33 22.5t-31 22.5q-31 15 -37 19q-17 10 -31 25q-19 18 -52 59
q-10 28 -39 80q-15 26 -48 69q-24 23 -82 50q-43 19 -93 20q-52 1 -63 -6q14 19 14 51q0 10 -2 35q-2 22 -2 34q45 -8 57 -6q17 5 53 11q101 7 186 -5q76 -11 145 -11q42 0 41 0q4 0 21 -5q13 -3 21 -1q-11 -6 -27 -14z" />
    <glyph glyph-name="z" unicode="z" horiz-adv-x="1285" 
d="M66 577q-2 28 -3 38q-2 23 7 27q1 1 32 4q73 9 109 14q105 1 110 1q72 10 79 10q122 -1 184 -5q27 1 166 8q101 6 165 4q31 -1 99 -10q64 -8 97 -8h17q33 0 51 -5q3 -29 9 -38q1 -4 9 -10t9 -12q-26 -9 -40 -12q-37 -20 -52 -33q-41 -34 -99 -73q-16 -12 -102 -68
q-36 -24 -88 -78q-63 -64 -85 -82q-70 -63 -103 -95l-30 -28q-19 -16 -35 -19q19 6 49 6q19 0 52 -3q39 -4 48 -4q89 -4 182 0q100 6 146 27q43 20 70 101q56 -10 65 -11q3 0 41 -2q26 -1 41 -5l-81 -100q-19 -29 -32 -69q-7 -24 -19 -74q-10 -1 -21 -1q-16 0 -52.5 4
t-56.5 3l-69 -6q-41 -2 -69 1l-202 23q-88 6 -132 7q-76 8 -114 13q-119 2 -178 2q-19 0 -61.5 2.5t-64.5 2.5q-79 0 -128 -26q32 26 51 37q49 46 65 56q169 101 237 165q83 63 128 88q66 47 108 83q72 57 110 84q41 33 71 40q-25 -5 -58 -5q-6 0 -119 8q-100 8 -231 0
q-55 -3 -74 -7q-41 -11 -59 -40q-12 -20 -12 -51q0 -39 19 -59q-33 9 -75 9q-43 0 -70 -10q10 33 10 78q0 76 -26 148z" />
  </font>
</defs>
</svg>
